G04*
G04 #@! TF.GenerationSoftware,Altium Limited,Altium Designer,24.0.1 (36)*
G04*
G04 Layer_Color=8388736*
%FSLAX25Y25*%
%MOIN*%
G70*
G04*
G04 #@! TF.SameCoordinates,5056A850-21AB-491F-975B-471AADAA3ABC*
G04*
G04*
G04 #@! TF.FilePolarity,Positive*
G04*
G01*
G75*
%ADD12C,0.01000*%
D12*
X19685Y325197D02*
X18688Y325172D01*
X17694Y325096D01*
X16704Y324970D01*
X15722Y324794D01*
X14751Y324568D01*
X13792Y324294D01*
X12848Y323972D01*
X11922Y323602D01*
X11016Y323185D01*
X10132Y322723D01*
X9272Y322217D01*
X8440Y321669D01*
X7636Y321078D01*
X6863Y320448D01*
X6123Y319779D01*
X5418Y319074D01*
X4749Y318334D01*
X4119Y317561D01*
X3528Y316757D01*
X2979Y315925D01*
X2473Y315065D01*
X2012Y314181D01*
X1595Y313275D01*
X1225Y312349D01*
X903Y311405D01*
X628Y310446D01*
X403Y309474D01*
X227Y308493D01*
X101Y307503D01*
X25Y306509D01*
X0Y305512D01*
X488189D02*
X488164Y306509D01*
X488088Y307503D01*
X487962Y308493D01*
X487786Y309474D01*
X487561Y310446D01*
X487286Y311405D01*
X486964Y312349D01*
X486594Y313275D01*
X486177Y314181D01*
X485715Y315065D01*
X485210Y315925D01*
X484661Y316757D01*
X484070Y317561D01*
X483440Y318334D01*
X482771Y319074D01*
X482066Y319779D01*
X481326Y320448D01*
X480553Y321078D01*
X479749Y321669D01*
X478917Y322217D01*
X478057Y322723D01*
X477173Y323185D01*
X476267Y323602D01*
X475341Y323972D01*
X474397Y324294D01*
X473438Y324568D01*
X472467Y324794D01*
X471485Y324970D01*
X470495Y325096D01*
X469501Y325172D01*
X468504Y325197D01*
Y0D02*
X469501Y25D01*
X470495Y101D01*
X471485Y227D01*
X472467Y403D01*
X473438Y628D01*
X474397Y903D01*
X475341Y1225D01*
X476267Y1595D01*
X477173Y2012D01*
X478057Y2473D01*
X478917Y2979D01*
X479749Y3528D01*
X480553Y4119D01*
X481326Y4749D01*
X482066Y5418D01*
X482771Y6123D01*
X483440Y6863D01*
X484070Y7636D01*
X484661Y8440D01*
X485210Y9272D01*
X485715Y10132D01*
X486177Y11016D01*
X486594Y11922D01*
X486964Y12848D01*
X487286Y13792D01*
X487561Y14751D01*
X487786Y15722D01*
X487962Y16704D01*
X488088Y17694D01*
X488164Y18688D01*
X488189Y19685D01*
X0D02*
X25Y18688D01*
X101Y17694D01*
X227Y16704D01*
X403Y15722D01*
X628Y14751D01*
X903Y13792D01*
X1225Y12848D01*
X1595Y11922D01*
X2012Y11016D01*
X2473Y10132D01*
X2979Y9272D01*
X3528Y8440D01*
X4119Y7636D01*
X4749Y6863D01*
X5418Y6123D01*
X6123Y5418D01*
X6863Y4749D01*
X7636Y4119D01*
X8440Y3528D01*
X9272Y2979D01*
X10132Y2473D01*
X11016Y2012D01*
X11922Y1595D01*
X12848Y1225D01*
X13792Y903D01*
X14751Y628D01*
X15722Y403D01*
X16704Y227D01*
X17694Y101D01*
X18688Y25D01*
X19685Y0D01*
X0Y325197D02*
X19685D01*
X0Y305512D02*
Y325197D01*
X19980D02*
X488189D01*
X0Y19685D02*
Y305217D01*
X488189Y0D02*
Y325197D01*
X19685Y0D02*
X488189D01*
X0D02*
Y19685D01*
Y0D02*
X19685D01*
M02*
