G04*
G04 #@! TF.GenerationSoftware,Altium Limited,Altium Designer,24.0.1 (36)*
G04*
G04 Layer_Color=8421504*
%FSLAX25Y25*%
%MOIN*%
G70*
G04*
G04 #@! TF.SameCoordinates,5056A850-21AB-491F-975B-471AADAA3ABC*
G04*
G04*
G04 #@! TF.FilePolarity,Positive*
G04*
G01*
G75*
%ADD17R,0.02756X0.03543*%
%ADD18R,0.03543X0.02756*%
%ADD19R,0.03347X0.03740*%
%ADD20R,0.07284X0.02559*%
%ADD21R,0.02165X0.07874*%
%ADD22R,0.02165X0.07874*%
%ADD23R,0.04724X0.06496*%
%ADD24R,0.03543X0.03150*%
%ADD25R,0.03740X0.03347*%
%ADD26R,0.06496X0.04724*%
D17*
X182283Y190945D02*
D03*
X187795D02*
D03*
X228740Y192913D02*
D03*
X234252D02*
D03*
X298031Y137795D02*
D03*
X292520D02*
D03*
X205528Y142898D02*
D03*
X211039D02*
D03*
X142520Y145669D02*
D03*
X137008D02*
D03*
X310236Y202756D02*
D03*
X315748D02*
D03*
X310236Y218504D02*
D03*
X315748D02*
D03*
Y234252D02*
D03*
X310236D02*
D03*
X269853Y115186D02*
D03*
X275365D02*
D03*
X137008Y135827D02*
D03*
X142520D02*
D03*
X292520Y92520D02*
D03*
X298031D02*
D03*
X211039Y133055D02*
D03*
X205528D02*
D03*
D18*
X253937Y111024D02*
D03*
Y105512D02*
D03*
X253937Y121653D02*
D03*
Y116142D02*
D03*
X320359Y111689D02*
D03*
Y117200D02*
D03*
X94488Y111417D02*
D03*
Y116929D02*
D03*
D19*
X328708Y103608D02*
D03*
X323590D02*
D03*
X328708Y125296D02*
D03*
X323590D02*
D03*
D20*
X141142Y121673D02*
D03*
Y116673D02*
D03*
Y111673D02*
D03*
Y106673D02*
D03*
X205315D02*
D03*
Y111673D02*
D03*
Y116673D02*
D03*
Y121673D02*
D03*
D21*
X302244Y124016D02*
D03*
X297244D02*
D03*
X292244D02*
D03*
X287244D02*
D03*
D22*
X302244Y104724D02*
D03*
X297244D02*
D03*
X292244D02*
D03*
X287244D02*
D03*
D23*
X289764Y147638D02*
D03*
X300787D02*
D03*
X289764Y80709D02*
D03*
X300787D02*
D03*
X228740Y102362D02*
D03*
X239764D02*
D03*
Y124016D02*
D03*
X228740D02*
D03*
D24*
X124016Y117913D02*
D03*
Y126181D02*
D03*
Y110433D02*
D03*
Y102165D02*
D03*
D25*
X81510Y105535D02*
D03*
Y100417D02*
D03*
D26*
Y117149D02*
D03*
Y128173D02*
D03*
Y195889D02*
D03*
Y206913D02*
D03*
Y172267D02*
D03*
Y183291D02*
D03*
Y148645D02*
D03*
Y159669D02*
D03*
Y219511D02*
D03*
Y230535D02*
D03*
M02*
