G04*
G04 #@! TF.GenerationSoftware,Altium Limited,Altium Designer,24.0.1 (36)*
G04*
G04 Layer_Physical_Order=2*
G04 Layer_Color=16711680*
%FSLAX25Y25*%
%MOIN*%
G70*
G04*
G04 #@! TF.SameCoordinates,5056A850-21AB-491F-975B-471AADAA3ABC*
G04*
G04*
G04 #@! TF.FilePolarity,Positive*
G04*
G01*
G75*
%ADD54C,0.01968*%
%ADD55C,0.01500*%
%ADD57R,0.06909X0.06909*%
%ADD58C,0.06909*%
%ADD59C,0.18779*%
%ADD60C,0.09055*%
%ADD61C,0.07874*%
%ADD62C,0.07650*%
%ADD63C,0.13287*%
%ADD64R,0.05756X0.05756*%
%ADD65C,0.05756*%
%ADD66C,0.09567*%
%ADD67C,0.06496*%
%ADD68C,0.19685*%
%ADD69C,0.06201*%
%ADD70C,0.10925*%
%ADD71C,0.09252*%
%ADD72C,0.05000*%
G36*
X480315Y9843D02*
X472114D01*
X471860Y10343D01*
X472714Y11518D01*
X473559Y13177D01*
X474134Y14947D01*
X474425Y16786D01*
Y18647D01*
X474134Y20486D01*
X473559Y22256D01*
X472714Y23915D01*
X471619Y25421D01*
X470303Y26737D01*
X468797Y27832D01*
X467138Y28677D01*
X465368Y29252D01*
X463529Y29543D01*
X461668D01*
X459829Y29252D01*
X458059Y28677D01*
X456400Y27832D01*
X454894Y26737D01*
X453578Y25421D01*
X452483Y23915D01*
X451638Y22256D01*
X451063Y20486D01*
X450772Y18647D01*
Y16786D01*
X451063Y14947D01*
X451638Y13177D01*
X452483Y11518D01*
X453337Y10343D01*
X453083Y9843D01*
X177165D01*
Y174177D01*
X185236D01*
X185626Y174255D01*
X185957Y174476D01*
X197853Y186372D01*
X198074Y186702D01*
X198152Y187093D01*
Y230596D01*
X198074Y230987D01*
X197853Y231317D01*
X193916Y235255D01*
X193585Y235475D01*
X193195Y235553D01*
X185321D01*
X184931Y235475D01*
X184600Y235255D01*
X177627Y228282D01*
X177165Y228473D01*
Y295276D01*
X453747D01*
X454894Y294129D01*
X456400Y293035D01*
X458059Y292189D01*
X459829Y291614D01*
X461668Y291323D01*
X463529D01*
X465368Y291614D01*
X467138Y292189D01*
X468797Y293035D01*
X470303Y294129D01*
X471450Y295276D01*
X480315D01*
Y9843D01*
D02*
G37*
G36*
X85293Y237509D02*
X31159D01*
Y292628D01*
X85293D01*
Y237509D01*
D02*
G37*
G36*
X197132Y230596D02*
Y187093D01*
X185236Y175197D01*
X169291D01*
X153543Y159449D01*
X153543Y96457D01*
X147638Y90551D01*
X137795D01*
X131890Y96457D01*
Y148714D01*
X134579Y151403D01*
X135243Y150894D01*
X136094Y150541D01*
X137008Y150421D01*
X137922Y150541D01*
X138773Y150894D01*
X139504Y151455D01*
X140065Y152186D01*
X140418Y153037D01*
X140538Y153951D01*
X140418Y154865D01*
X140065Y155716D01*
X139504Y156447D01*
X138773Y157008D01*
X137922Y157361D01*
X137008Y157481D01*
X136094Y157361D01*
X135243Y157008D01*
X134512Y156447D01*
X133951Y155716D01*
X133844Y155458D01*
X133750D01*
X132975Y155304D01*
X132390Y154912D01*
X131890Y155054D01*
Y167323D01*
X177447Y212880D01*
Y226659D01*
X185321Y234534D01*
X193195D01*
X197132Y230596D01*
D02*
G37*
G36*
X117134Y117724D02*
X117157Y117487D01*
X117195Y117260D01*
X117248Y117043D01*
X117317Y116837D01*
X117402Y116641D01*
X117501Y116455D01*
X117616Y116279D01*
X117746Y116114D01*
X117892Y115959D01*
X114392D01*
X114537Y116114D01*
X114667Y116279D01*
X114782Y116455D01*
X114882Y116641D01*
X114966Y116837D01*
X115035Y117043D01*
X115089Y117260D01*
X115127Y117487D01*
X115150Y117724D01*
X115157Y117971D01*
X117126D01*
X117134Y117724D01*
D02*
G37*
G36*
X88563Y33465D02*
X34429D01*
Y88583D01*
X88563D01*
Y33465D01*
D02*
G37*
%LPC*%
G36*
X431062Y259823D02*
X430041D01*
X429054Y259559D01*
X428170Y259048D01*
X427448Y258326D01*
X426937Y257442D01*
X426673Y256455D01*
Y255434D01*
X426937Y254448D01*
X427448Y253564D01*
X428170Y252842D01*
X429054Y252331D01*
X430041Y252067D01*
X431062D01*
X432048Y252331D01*
X432932Y252842D01*
X433654Y253564D01*
X434165Y254448D01*
X434429Y255434D01*
Y256455D01*
X434165Y257442D01*
X433654Y258326D01*
X432932Y259048D01*
X432048Y259559D01*
X431062Y259823D01*
D02*
G37*
G36*
X467274Y261433D02*
X465797D01*
X464349Y261145D01*
X462985Y260580D01*
X461757Y259760D01*
X460713Y258716D01*
X459893Y257488D01*
X459327Y256123D01*
X459039Y254675D01*
Y253199D01*
X459327Y251750D01*
X459893Y250386D01*
X460713Y249159D01*
X461757Y248114D01*
X462985Y247294D01*
X464349Y246729D01*
X465797Y246441D01*
X467274D01*
X468722Y246729D01*
X470086Y247294D01*
X471314Y248114D01*
X472358Y249159D01*
X473178Y250386D01*
X473743Y251750D01*
X474031Y253199D01*
Y254675D01*
X473743Y256123D01*
X473178Y257488D01*
X472358Y258716D01*
X471314Y259760D01*
X470086Y260580D01*
X468722Y261145D01*
X467274Y261433D01*
D02*
G37*
G36*
X431062Y250803D02*
X430041D01*
X429054Y250539D01*
X428170Y250028D01*
X427448Y249306D01*
X426937Y248422D01*
X426673Y247436D01*
Y246415D01*
X426937Y245428D01*
X427448Y244544D01*
X428170Y243822D01*
X429054Y243312D01*
X430041Y243047D01*
X431062D01*
X432048Y243312D01*
X432932Y243822D01*
X433654Y244544D01*
X434165Y245428D01*
X434429Y246415D01*
Y247436D01*
X434165Y248422D01*
X433654Y249306D01*
X432932Y250028D01*
X432048Y250539D01*
X431062Y250803D01*
D02*
G37*
G36*
X460413Y246799D02*
X452658D01*
Y241987D01*
X452157Y241779D01*
X451909Y242028D01*
X451024Y242539D01*
X450038Y242803D01*
X449017D01*
X448031Y242539D01*
X447146Y242028D01*
X446424Y241306D01*
X445914Y240422D01*
X445650Y239436D01*
Y238415D01*
X445914Y237428D01*
X446424Y236544D01*
X447146Y235822D01*
X448031Y235312D01*
X448492Y235188D01*
Y234670D01*
X448031Y234547D01*
X447146Y234036D01*
X446424Y233314D01*
X445914Y232430D01*
X445650Y231444D01*
Y230422D01*
X445914Y229436D01*
X446424Y228552D01*
X447146Y227830D01*
X448031Y227319D01*
X448492Y227196D01*
Y226678D01*
X448031Y226555D01*
X447146Y226044D01*
X446424Y225322D01*
X445914Y224438D01*
X445650Y223451D01*
Y222430D01*
X445914Y221444D01*
X446424Y220560D01*
X447146Y219838D01*
X448031Y219327D01*
X448492Y219204D01*
Y218686D01*
X448031Y218563D01*
X447146Y218052D01*
X446424Y217330D01*
X445914Y216446D01*
X445650Y215459D01*
Y214438D01*
X445914Y213452D01*
X446424Y212568D01*
X447146Y211846D01*
X448031Y211335D01*
X449017Y211071D01*
X450038D01*
X451024Y211335D01*
X451909Y211846D01*
X452631Y212568D01*
X453141Y213452D01*
X453406Y214438D01*
Y215459D01*
X453250Y216039D01*
X453699Y216298D01*
X454154Y215842D01*
X455039Y215331D01*
X456025Y215067D01*
X457046D01*
X458032Y215331D01*
X458917Y215842D01*
X459639Y216564D01*
X460149Y217448D01*
X460413Y218434D01*
Y219455D01*
X460149Y220442D01*
X459639Y221326D01*
X458917Y222048D01*
X458032Y222559D01*
X457571Y222682D01*
Y223200D01*
X458032Y223323D01*
X458917Y223834D01*
X459639Y224556D01*
X460149Y225440D01*
X460413Y226427D01*
Y227448D01*
X460149Y228434D01*
X459639Y229318D01*
X458917Y230040D01*
X458032Y230551D01*
X457571Y230674D01*
Y231192D01*
X458032Y231315D01*
X458917Y231826D01*
X459639Y232548D01*
X460149Y233432D01*
X460413Y234419D01*
Y235440D01*
X460149Y236426D01*
X459639Y237310D01*
X458917Y238032D01*
X458032Y238543D01*
X458030Y238543D01*
X458096Y239043D01*
X460413D01*
Y246799D01*
D02*
G37*
G36*
X300163Y246484D02*
X298892D01*
X297665Y246156D01*
X296565Y245520D01*
X295667Y244622D01*
X295031Y243522D01*
X294703Y242295D01*
Y241024D01*
X295031Y239797D01*
X295667Y238697D01*
X296565Y237799D01*
X297665Y237163D01*
X298892Y236835D01*
X300163D01*
X301390Y237163D01*
X302490Y237799D01*
X303389Y238697D01*
X304024Y239797D01*
X304353Y241024D01*
Y242295D01*
X304024Y243522D01*
X303389Y244622D01*
X302490Y245520D01*
X301390Y246156D01*
X300163Y246484D01*
D02*
G37*
G36*
X260163D02*
X258892D01*
X257665Y246156D01*
X256565Y245520D01*
X255667Y244622D01*
X255031Y243522D01*
X254703Y242295D01*
Y241024D01*
X255031Y239797D01*
X255667Y238697D01*
X256565Y237799D01*
X257665Y237163D01*
X258892Y236835D01*
X260163D01*
X261390Y237163D01*
X262490Y237799D01*
X263388Y238697D01*
X264024Y239797D01*
X264353Y241024D01*
Y242295D01*
X264024Y243522D01*
X263388Y244622D01*
X262490Y245520D01*
X261390Y246156D01*
X260163Y246484D01*
D02*
G37*
G36*
X431062Y214819D02*
X430041D01*
X429054Y214555D01*
X428170Y214044D01*
X427448Y213322D01*
X426937Y212438D01*
X426673Y211452D01*
Y210430D01*
X426937Y209444D01*
X427448Y208560D01*
X428170Y207838D01*
X429054Y207327D01*
X430041Y207063D01*
X431062D01*
X432048Y207327D01*
X432932Y207838D01*
X433654Y208560D01*
X434165Y209444D01*
X434429Y210430D01*
Y211452D01*
X434165Y212438D01*
X433654Y213322D01*
X432932Y214044D01*
X432048Y214555D01*
X431062Y214819D01*
D02*
G37*
G36*
Y205803D02*
X430041D01*
X429054Y205539D01*
X428170Y205028D01*
X427448Y204306D01*
X426937Y203422D01*
X426673Y202436D01*
Y201415D01*
X426937Y200428D01*
X427448Y199544D01*
X428170Y198822D01*
X429054Y198311D01*
X430041Y198047D01*
X431062D01*
X432048Y198311D01*
X432932Y198822D01*
X433654Y199544D01*
X434165Y200428D01*
X434429Y201415D01*
Y202436D01*
X434165Y203422D01*
X433654Y204306D01*
X432932Y205028D01*
X432048Y205539D01*
X431062Y205803D01*
D02*
G37*
G36*
X300163Y206485D02*
X298892D01*
X297665Y206156D01*
X296565Y205521D01*
X295667Y204622D01*
X295031Y203522D01*
X294703Y202295D01*
Y201024D01*
X295031Y199797D01*
X295667Y198697D01*
X296565Y197799D01*
X297665Y197163D01*
X298892Y196835D01*
X300163D01*
X301390Y197163D01*
X302490Y197799D01*
X303389Y198697D01*
X304024Y199797D01*
X304353Y201024D01*
Y202295D01*
X304024Y203522D01*
X303389Y204622D01*
X302490Y205521D01*
X301390Y206156D01*
X300163Y206485D01*
D02*
G37*
G36*
X260163D02*
X258892D01*
X257665Y206156D01*
X256565Y205521D01*
X255667Y204622D01*
X255031Y203522D01*
X254703Y202295D01*
Y201024D01*
X255031Y199797D01*
X255667Y198697D01*
X256565Y197799D01*
X257665Y197163D01*
X258892Y196835D01*
X260163D01*
X261390Y197163D01*
X262490Y197799D01*
X263388Y198697D01*
X264024Y199797D01*
X264353Y201024D01*
Y202295D01*
X264024Y203522D01*
X263388Y204622D01*
X262490Y205521D01*
X261390Y206156D01*
X260163Y206485D01*
D02*
G37*
G36*
X467274Y211433D02*
X465797D01*
X464349Y211145D01*
X462985Y210580D01*
X461757Y209760D01*
X460713Y208716D01*
X459893Y207488D01*
X459327Y206123D01*
X459039Y204675D01*
Y203199D01*
X459327Y201750D01*
X459893Y200386D01*
X460713Y199159D01*
X461757Y198114D01*
X462985Y197294D01*
X464349Y196729D01*
X465797Y196441D01*
X467274D01*
X468722Y196729D01*
X470086Y197294D01*
X471314Y198114D01*
X472358Y199159D01*
X473178Y200386D01*
X473743Y201750D01*
X474031Y203199D01*
Y204675D01*
X473743Y206123D01*
X473178Y207488D01*
X472358Y208716D01*
X471314Y209760D01*
X470086Y210580D01*
X468722Y211145D01*
X467274Y211433D01*
D02*
G37*
G36*
X185039Y274642D02*
X184649Y274564D01*
X184318Y274343D01*
X180381Y270406D01*
X180160Y270075D01*
X180083Y269685D01*
Y265748D01*
X180160Y265358D01*
X180381Y265027D01*
X182350Y263059D01*
X182681Y262838D01*
X183071Y262760D01*
X185612D01*
X185945Y262427D01*
X187071Y261777D01*
X188326Y261441D01*
X189626D01*
X190882Y261777D01*
X192008Y262427D01*
X192340Y262760D01*
X230888Y262760D01*
X231221Y262427D01*
X232346Y261777D01*
X233602Y261441D01*
X234902D01*
X236158Y261777D01*
X237283Y262427D01*
X237616Y262760D01*
X300759Y262760D01*
X313941Y249578D01*
Y196850D01*
X314019Y196460D01*
X314240Y196129D01*
X320145Y190224D01*
X320476Y190003D01*
X320866Y189925D01*
X372047Y189925D01*
X372437Y190003D01*
X372768Y190224D01*
X376705Y194161D01*
X376926Y194492D01*
X377004Y194882D01*
Y244094D01*
X376926Y244485D01*
X376705Y244815D01*
X347178Y274343D01*
X346847Y274564D01*
X346457Y274642D01*
X185039Y274642D01*
D02*
G37*
G36*
X427088Y146017D02*
X426405Y145881D01*
X425826Y145494D01*
X425094Y144762D01*
X425094Y144762D01*
X423011Y142679D01*
X423011Y142679D01*
X415696Y135364D01*
X415696Y135364D01*
X415696Y135364D01*
X398524Y118192D01*
X360494D01*
X360430Y118226D01*
X360319Y118331D01*
X360133Y118677D01*
X360189Y118809D01*
X360261Y118945D01*
X360350Y119085D01*
X360457Y119231D01*
X360584Y119380D01*
X360752Y119555D01*
X360801Y119631D01*
X361068Y119898D01*
X361529Y120696D01*
X361768Y121587D01*
Y122508D01*
X361529Y123398D01*
X361068Y124196D01*
X360417Y124848D01*
X359619Y125309D01*
X358729Y125547D01*
X357807D01*
X356917Y125309D01*
X356119Y124848D01*
X355467Y124196D01*
X355006Y123398D01*
X354768Y122508D01*
Y121587D01*
X355006Y120696D01*
X355467Y119898D01*
X355734Y119631D01*
X355783Y119555D01*
X355951Y119380D01*
X356078Y119231D01*
X356186Y119085D01*
X356274Y118945D01*
X356346Y118809D01*
X356402Y118677D01*
X356216Y118331D01*
X356106Y118226D01*
X356041Y118192D01*
X355111D01*
X355111Y118192D01*
X354428Y118056D01*
X353849Y117669D01*
X349756Y113576D01*
X349369Y112997D01*
X349233Y112314D01*
Y75994D01*
X349369Y75311D01*
X349756Y74733D01*
X351031Y73457D01*
X340600Y63026D01*
X340379Y62695D01*
X340301Y62305D01*
Y36715D01*
X340379Y36325D01*
X340600Y35994D01*
X350442Y26151D01*
X350773Y25930D01*
X351163Y25853D01*
X380691D01*
X381081Y25930D01*
X381412Y26151D01*
X389286Y34025D01*
X389507Y34356D01*
X389584Y34746D01*
Y66242D01*
X389507Y66632D01*
X389286Y66963D01*
X381412Y74837D01*
X381081Y75058D01*
X380691Y75136D01*
X357935Y75136D01*
X355302Y77769D01*
Y105630D01*
X355764Y105822D01*
X355905Y105681D01*
X356703Y105220D01*
X357593Y104981D01*
X358515D01*
X359405Y105220D01*
X360203Y105681D01*
X360855Y106332D01*
X361316Y107130D01*
X361554Y108021D01*
Y108942D01*
X361316Y109832D01*
X360855Y110630D01*
X360752Y110733D01*
X360740Y110755D01*
X360580Y110951D01*
X360456Y111122D01*
X360349Y111287D01*
X360261Y111446D01*
X360189Y111599D01*
X360180Y111623D01*
X360333Y111956D01*
X360438Y112065D01*
X360550Y112123D01*
X360552Y112123D01*
X400298D01*
X400981Y112259D01*
X401560Y112646D01*
X419255Y130341D01*
X419255Y130341D01*
X428862Y139948D01*
X448244D01*
X450046Y138146D01*
Y133182D01*
X450013Y133175D01*
X443026D01*
Y124266D01*
X451935D01*
Y129554D01*
X452046Y129626D01*
X452546Y129354D01*
Y126136D01*
X452681Y125453D01*
X453068Y124874D01*
X453327Y124615D01*
X453443Y124473D01*
X453586Y124273D01*
X453717Y124061D01*
X453836Y123837D01*
X453943Y123601D01*
X454038Y123350D01*
X454122Y123085D01*
X454193Y122806D01*
X454207Y122736D01*
Y122681D01*
X454248Y122527D01*
X454256Y122485D01*
X454265Y122465D01*
X454281Y122405D01*
X454284Y122378D01*
X454292Y122362D01*
X454510Y121548D01*
X455097Y120532D01*
X455926Y119703D01*
X456942Y119117D01*
X458075Y118813D01*
X459248D01*
X460381Y119117D01*
X461397Y119703D01*
X462226Y120532D01*
X462813Y121548D01*
X463116Y122681D01*
Y123854D01*
X462813Y124987D01*
X462226Y126003D01*
X461397Y126832D01*
X460381Y127419D01*
X459248Y127722D01*
X458075D01*
X456942Y127419D01*
X456792Y127333D01*
X456614Y127258D01*
X456456Y127315D01*
X456195Y127495D01*
X456126Y127601D01*
X456114Y127645D01*
Y139921D01*
X456114Y139921D01*
X455978Y140603D01*
X455591Y141182D01*
X451280Y145494D01*
X450701Y145881D01*
X450018Y146017D01*
X427088D01*
X427088Y146017D01*
D02*
G37*
G36*
X448067Y122270D02*
X446894D01*
X445761Y121966D01*
X444745Y121380D01*
X443916Y120550D01*
X443329Y119534D01*
X443026Y118401D01*
Y117228D01*
X443329Y116095D01*
X443916Y115080D01*
X444745Y114250D01*
X445761Y113664D01*
X446894Y113360D01*
X448067D01*
X449200Y113664D01*
X450216Y114250D01*
X451045Y115080D01*
X451631Y116095D01*
X451935Y117228D01*
Y118401D01*
X451631Y119534D01*
X451045Y120550D01*
X450216Y121380D01*
X449200Y121966D01*
X448067Y122270D01*
D02*
G37*
G36*
X459248Y116817D02*
X458075D01*
X456942Y116513D01*
X455926Y115927D01*
X455097Y115097D01*
X454510Y114082D01*
X454207Y112949D01*
Y111776D01*
X454510Y110643D01*
X455097Y109627D01*
X455926Y108798D01*
X456942Y108211D01*
X458075Y107907D01*
X459248D01*
X460381Y108211D01*
X461397Y108798D01*
X462226Y109627D01*
X462813Y110643D01*
X463116Y111776D01*
Y112949D01*
X462813Y114082D01*
X462226Y115097D01*
X461397Y115927D01*
X460381Y116513D01*
X459248Y116817D01*
D02*
G37*
G36*
X448067Y111364D02*
X446894D01*
X445761Y111061D01*
X444745Y110474D01*
X443916Y109645D01*
X443329Y108629D01*
X443026Y107496D01*
Y106323D01*
X443329Y105190D01*
X443916Y104174D01*
X444745Y103345D01*
X445761Y102758D01*
X446894Y102455D01*
X448067D01*
X449200Y102758D01*
X450216Y103345D01*
X451045Y104174D01*
X451631Y105190D01*
X451935Y106323D01*
Y107496D01*
X451631Y108629D01*
X451045Y109645D01*
X450216Y110474D01*
X449200Y111061D01*
X448067Y111364D01*
D02*
G37*
G36*
X459248Y105911D02*
X458075D01*
X456942Y105608D01*
X455926Y105021D01*
X455097Y104192D01*
X454510Y103176D01*
X454207Y102043D01*
Y100870D01*
X454510Y99737D01*
X455097Y98721D01*
X455926Y97892D01*
X456942Y97306D01*
X458075Y97002D01*
X459248D01*
X460381Y97306D01*
X461397Y97892D01*
X462226Y98721D01*
X462813Y99737D01*
X463116Y100870D01*
Y102043D01*
X462813Y103176D01*
X462226Y104192D01*
X461397Y105021D01*
X460381Y105608D01*
X459248Y105911D01*
D02*
G37*
G36*
X448067Y100455D02*
X446894D01*
X445761Y100151D01*
X444745Y99565D01*
X443916Y98735D01*
X443329Y97720D01*
X443026Y96587D01*
Y95414D01*
X443329Y94280D01*
X443916Y93265D01*
X444745Y92435D01*
X445761Y91849D01*
X446894Y91545D01*
X448067D01*
X449200Y91849D01*
X450216Y92435D01*
X451045Y93265D01*
X451631Y94280D01*
X451935Y95414D01*
Y96587D01*
X451631Y97720D01*
X451045Y98735D01*
X450216Y99565D01*
X449200Y100151D01*
X448067Y100455D01*
D02*
G37*
G36*
X459248Y95006D02*
X458075D01*
X456942Y94702D01*
X455926Y94116D01*
X455097Y93286D01*
X454510Y92271D01*
X454207Y91138D01*
Y89965D01*
X454510Y88832D01*
X455097Y87816D01*
X455926Y86987D01*
X456942Y86400D01*
X458075Y86097D01*
X459248D01*
X460381Y86400D01*
X461397Y86987D01*
X462226Y87816D01*
X462813Y88832D01*
X463116Y89965D01*
Y91138D01*
X462813Y92271D01*
X462226Y93286D01*
X461397Y94116D01*
X460381Y94702D01*
X459248Y95006D01*
D02*
G37*
G36*
X448067Y89549D02*
X446894D01*
X445761Y89246D01*
X444745Y88659D01*
X443916Y87830D01*
X443329Y86814D01*
X443026Y85681D01*
Y84508D01*
X443329Y83375D01*
X443916Y82359D01*
X444745Y81530D01*
X445761Y80943D01*
X446894Y80640D01*
X448067D01*
X449200Y80943D01*
X450216Y81530D01*
X451045Y82359D01*
X451631Y83375D01*
X451935Y84508D01*
Y85681D01*
X451631Y86814D01*
X451045Y87830D01*
X450216Y88659D01*
X449200Y89246D01*
X448067Y89549D01*
D02*
G37*
G36*
X236062Y236097D02*
X221298D01*
X220908Y236019D01*
X220577Y235798D01*
X204003Y219225D01*
X203782Y218894D01*
X203705Y218504D01*
X203705Y163238D01*
X196061Y153896D01*
X195991Y153764D01*
X195908Y153640D01*
X195898Y153590D01*
X195874Y153545D01*
X195860Y153396D01*
X195831Y153250D01*
Y96457D01*
X195908Y96066D01*
X196129Y95736D01*
X221720Y70145D01*
X222051Y69924D01*
X222441Y69846D01*
X318898Y69846D01*
X319288Y69924D01*
X319619Y70145D01*
X337036Y87563D01*
X342520D01*
X342910Y87641D01*
X343241Y87862D01*
X343462Y88192D01*
X343539Y88583D01*
Y143701D01*
X343462Y144091D01*
X343241Y144422D01*
X342910Y144643D01*
X342520Y144720D01*
X337036D01*
X323556Y158201D01*
X323225Y158422D01*
X322835Y158500D01*
X249121Y158500D01*
X246295Y161326D01*
Y225864D01*
X246218Y226254D01*
X245996Y226585D01*
X236783Y235798D01*
X236452Y236019D01*
X236062Y236097D01*
D02*
G37*
%LPD*%
G36*
X346457Y273622D02*
X375984Y244094D01*
Y194882D01*
X372047Y190945D01*
X320866Y190945D01*
X314961Y196850D01*
Y250000D01*
X301181Y263779D01*
X183071Y263779D01*
X181102Y265748D01*
Y269685D01*
X185039Y273622D01*
X346457Y273622D01*
D02*
G37*
%LPC*%
G36*
X371029Y246484D02*
X369759D01*
X368531Y246156D01*
X367431Y245520D01*
X366533Y244622D01*
X365897Y243522D01*
X365569Y242295D01*
Y241024D01*
X365897Y239797D01*
X366533Y238697D01*
X367431Y237799D01*
X368531Y237163D01*
X369759Y236835D01*
X371029D01*
X372256Y237163D01*
X373356Y237799D01*
X374255Y238697D01*
X374890Y239797D01*
X375219Y241024D01*
Y242295D01*
X374890Y243522D01*
X374255Y244622D01*
X373356Y245520D01*
X372256Y246156D01*
X371029Y246484D01*
D02*
G37*
G36*
X331029D02*
X329759D01*
X328531Y246156D01*
X327431Y245520D01*
X326533Y244622D01*
X325898Y243522D01*
X325569Y242295D01*
Y241024D01*
X325898Y239797D01*
X326533Y238697D01*
X327431Y237799D01*
X328531Y237163D01*
X329759Y236835D01*
X331029D01*
X332256Y237163D01*
X333356Y237799D01*
X334255Y238697D01*
X334890Y239797D01*
X335219Y241024D01*
Y242295D01*
X334890Y243522D01*
X334255Y244622D01*
X333356Y245520D01*
X332256Y246156D01*
X331029Y246484D01*
D02*
G37*
G36*
X371029Y206485D02*
X369759D01*
X368531Y206156D01*
X367431Y205521D01*
X366533Y204622D01*
X365897Y203522D01*
X365569Y202295D01*
Y201024D01*
X365897Y199797D01*
X366533Y198697D01*
X367431Y197799D01*
X368531Y197163D01*
X369759Y196835D01*
X371029D01*
X372256Y197163D01*
X373356Y197799D01*
X374255Y198697D01*
X374890Y199797D01*
X375219Y201024D01*
Y202295D01*
X374890Y203522D01*
X374255Y204622D01*
X373356Y205521D01*
X372256Y206156D01*
X371029Y206485D01*
D02*
G37*
G36*
X331029D02*
X329759D01*
X328531Y206156D01*
X327431Y205521D01*
X326533Y204622D01*
X325898Y203522D01*
X325569Y202295D01*
Y201024D01*
X325898Y199797D01*
X326533Y198697D01*
X327431Y197799D01*
X328531Y197163D01*
X329759Y196835D01*
X331029D01*
X332256Y197163D01*
X333356Y197799D01*
X334255Y198697D01*
X334890Y199797D01*
X335219Y201024D01*
Y202295D01*
X334890Y203522D01*
X334255Y204622D01*
X333356Y205521D01*
X332256Y206156D01*
X331029Y206485D01*
D02*
G37*
%LPD*%
G36*
X455051Y126496D02*
X455251Y126358D01*
X455461Y126251D01*
X455680Y126177D01*
X455908Y126134D01*
X456147Y126122D01*
X456394Y126143D01*
X456651Y126195D01*
X456918Y126280D01*
X457194Y126395D01*
X455257Y122683D01*
X455188Y123030D01*
X455103Y123364D01*
X455002Y123685D01*
X454884Y123993D01*
X454751Y124287D01*
X454602Y124569D01*
X454436Y124837D01*
X454254Y125092D01*
X454056Y125334D01*
X453842Y125563D01*
X454860Y126666D01*
X455051Y126496D01*
D02*
G37*
G36*
X359828Y120064D02*
X359658Y119864D01*
X359508Y119661D01*
X359378Y119456D01*
X359268Y119247D01*
X359178Y119036D01*
X359108Y118822D01*
X359058Y118605D01*
X359028Y118385D01*
X359018Y118162D01*
X357518D01*
X357508Y118385D01*
X357478Y118605D01*
X357428Y118822D01*
X357358Y119036D01*
X357268Y119247D01*
X357158Y119456D01*
X357028Y119661D01*
X356878Y119864D01*
X356708Y120064D01*
X356518Y120262D01*
X360018D01*
X359828Y120064D01*
D02*
G37*
G36*
X359018Y112288D02*
X359027Y112070D01*
X359055Y111852D01*
X359102Y111633D01*
X359167Y111416D01*
X359251Y111198D01*
X359353Y110980D01*
X359475Y110762D01*
X359614Y110545D01*
X359773Y110328D01*
X359950Y110111D01*
X356463Y110410D01*
X356663Y110587D01*
X356843Y110769D01*
X357001Y110956D01*
X357138Y111150D01*
X357254Y111348D01*
X357349Y111552D01*
X357423Y111762D01*
X357475Y111977D01*
X357507Y112197D01*
X357518Y112423D01*
X359018Y112288D01*
D02*
G37*
G36*
X368384Y53777D02*
X368215Y53587D01*
X368064Y53376D01*
X367931Y53142D01*
X367816Y52887D01*
X367720Y52610D01*
X367642Y52311D01*
X367582Y51990D01*
X367540Y51647D01*
X367517Y51282D01*
X367512Y50895D01*
X364442Y53965D01*
X364829Y53970D01*
X365537Y54035D01*
X365858Y54095D01*
X366157Y54173D01*
X366434Y54269D01*
X366689Y54384D01*
X366923Y54517D01*
X367134Y54668D01*
X367324Y54837D01*
X368384Y53777D01*
D02*
G37*
G36*
X380691Y74116D02*
X388565Y66242D01*
Y34746D01*
X380691Y26872D01*
X351163D01*
X341321Y36715D01*
Y62305D01*
X351752Y72737D01*
X367756Y56732D01*
X366470Y55447D01*
X366372Y55377D01*
X366227Y55294D01*
X366057Y55218D01*
X365860Y55149D01*
X365635Y55090D01*
X365396Y55046D01*
X364776Y54989D01*
X364429Y54984D01*
X364338Y54965D01*
X363872D01*
X362829Y54685D01*
X361894Y54145D01*
X361130Y53382D01*
X360590Y52447D01*
X360311Y51404D01*
Y50325D01*
X360590Y49282D01*
X361130Y48347D01*
X361894Y47583D01*
X362829Y47043D01*
X363872Y46764D01*
X364951D01*
X365994Y47043D01*
X366929Y47583D01*
X367692Y48347D01*
X368232Y49282D01*
X368512Y50325D01*
Y50791D01*
X368531Y50882D01*
X368536Y51243D01*
X368556Y51553D01*
X368590Y51835D01*
X368637Y52088D01*
X368696Y52313D01*
X368765Y52510D01*
X368841Y52680D01*
X368924Y52825D01*
X368994Y52923D01*
X370920Y54849D01*
X371307Y55428D01*
X371442Y56111D01*
X371442Y56111D01*
Y57354D01*
X371442Y57354D01*
X371307Y58037D01*
X370920Y58615D01*
X355881Y73654D01*
X356072Y74116D01*
X380691Y74116D01*
D02*
G37*
G36*
X245276Y225864D02*
Y160903D01*
X248698Y157480D01*
X322835Y157480D01*
X336614Y143701D01*
X342520D01*
Y88583D01*
X336614D01*
X318898Y70866D01*
X222441Y70866D01*
X196850Y96457D01*
Y153250D01*
X204724Y162874D01*
X204724Y218504D01*
X221298Y235077D01*
X236062D01*
X245276Y225864D01*
D02*
G37*
%LPC*%
G36*
X234252Y211358D02*
X232963Y211188D01*
X231762Y210690D01*
X230731Y209899D01*
X229940Y208868D01*
X229442Y207667D01*
X229272Y206378D01*
X229442Y205089D01*
X229940Y203888D01*
X230731Y202857D01*
X231762Y202065D01*
X232963Y201568D01*
X234252Y201398D01*
X235541Y201568D01*
X236742Y202065D01*
X237773Y202857D01*
X238564Y203888D01*
X239062Y205089D01*
X239232Y206378D01*
X239062Y207667D01*
X238564Y208868D01*
X237773Y209899D01*
X236742Y210690D01*
X235541Y211188D01*
X234252Y211358D01*
D02*
G37*
G36*
X216535Y166916D02*
X215622Y166796D01*
X214770Y166443D01*
X214039Y165882D01*
X213478Y165151D01*
X213125Y164299D01*
X213005Y163386D01*
X213125Y162472D01*
X213478Y161621D01*
X214039Y160890D01*
X214770Y160329D01*
X215622Y159976D01*
X216535Y159856D01*
X217449Y159976D01*
X218301Y160329D01*
X219032Y160890D01*
X219073Y160943D01*
X219141Y161007D01*
X219237Y161083D01*
X219338Y161149D01*
X219446Y161206D01*
X219563Y161257D01*
X219690Y161299D01*
X219830Y161334D01*
X219983Y161360D01*
X220016Y161363D01*
X225540D01*
X274478Y112424D01*
X275135Y111986D01*
X275909Y111832D01*
X323936D01*
X323968Y111829D01*
X324121Y111803D01*
X324261Y111768D01*
X324389Y111726D01*
X324505Y111676D01*
X324613Y111618D01*
X324714Y111552D01*
X324810Y111476D01*
X324878Y111413D01*
X324919Y111359D01*
X325651Y110798D01*
X326502Y110445D01*
X327416Y110325D01*
X328329Y110445D01*
X329181Y110798D01*
X329912Y111359D01*
X330473Y112090D01*
X330826Y112941D01*
X330946Y113855D01*
X330826Y114769D01*
X330473Y115620D01*
X329912Y116351D01*
X329181Y116912D01*
X328329Y117265D01*
X327416Y117385D01*
X326502Y117265D01*
X325651Y116912D01*
X324919Y116351D01*
X324878Y116297D01*
X324810Y116234D01*
X324714Y116158D01*
X324613Y116092D01*
X324505Y116034D01*
X324389Y115984D01*
X324261Y115942D01*
X324121Y115907D01*
X323968Y115881D01*
X323936Y115878D01*
X276747D01*
X227808Y164816D01*
X227152Y165255D01*
X226378Y165409D01*
X220016D01*
X219983Y165412D01*
X219830Y165438D01*
X219690Y165473D01*
X219563Y165515D01*
X219446Y165565D01*
X219338Y165623D01*
X219237Y165689D01*
X219141Y165764D01*
X219073Y165828D01*
X219032Y165882D01*
X218301Y166443D01*
X217449Y166796D01*
X216535Y166916D01*
D02*
G37*
%LPD*%
G36*
X218476Y164990D02*
X218641Y164860D01*
X218817Y164745D01*
X219003Y164646D01*
X219199Y164561D01*
X219406Y164493D01*
X219622Y164439D01*
X219849Y164401D01*
X220086Y164378D01*
X220334Y164370D01*
Y162402D01*
X220086Y162394D01*
X219849Y162371D01*
X219622Y162333D01*
X219406Y162279D01*
X219199Y162210D01*
X219003Y162126D01*
X218817Y162026D01*
X218641Y161911D01*
X218476Y161781D01*
X218321Y161636D01*
Y165136D01*
X218476Y164990D01*
D02*
G37*
G36*
X325630Y112105D02*
X325475Y112250D01*
X325310Y112381D01*
X325134Y112496D01*
X324948Y112595D01*
X324752Y112679D01*
X324545Y112748D01*
X324329Y112802D01*
X324102Y112840D01*
X323865Y112863D01*
X323618Y112871D01*
Y114839D01*
X323865Y114847D01*
X324102Y114870D01*
X324329Y114908D01*
X324545Y114962D01*
X324752Y115031D01*
X324948Y115115D01*
X325134Y115215D01*
X325310Y115329D01*
X325475Y115460D01*
X325630Y115605D01*
Y112105D01*
D02*
G37*
%LPC*%
G36*
X188976Y211358D02*
X187688Y211188D01*
X186487Y210690D01*
X185455Y209899D01*
X184664Y208868D01*
X184167Y207667D01*
X183997Y206378D01*
X184167Y205089D01*
X184664Y203888D01*
X185455Y202857D01*
X186487Y202065D01*
X187688Y201568D01*
X188976Y201398D01*
X190265Y201568D01*
X191466Y202065D01*
X192498Y202857D01*
X193289Y203888D01*
X193786Y205089D01*
X193956Y206378D01*
X193786Y207667D01*
X193289Y208868D01*
X192498Y209899D01*
X191466Y210690D01*
X190265Y211188D01*
X188976Y211358D01*
D02*
G37*
%LPD*%
D54*
X136492Y153435D02*
X137008Y153951D01*
X116142Y135827D02*
X133750Y153435D01*
X116142Y114173D02*
Y135827D01*
X133750Y153435D02*
X136492D01*
X216535Y163386D02*
X226378D01*
X275909Y113855D02*
X327416D01*
X226378Y163386D02*
X275909Y113855D01*
D55*
X358425Y116408D02*
X399263D01*
X400298Y113908D02*
X417993Y131603D01*
X399263Y116408D02*
X416958Y134102D01*
X357389Y113908D02*
X400298D01*
X427088Y144232D02*
X450018D01*
X426355Y143500D02*
X427088Y144232D01*
X424273Y141418D02*
X426355Y143500D01*
X426355D01*
X424273Y141418D02*
Y141418D01*
X416958Y134102D02*
X424273Y141418D01*
X416958Y134102D02*
X416958D01*
X369658Y56111D02*
Y57354D01*
X364411Y50864D02*
X369658Y56111D01*
X358268Y117286D02*
Y122047D01*
X355111Y116408D02*
X357389D01*
X351018Y75994D02*
X369658Y57354D01*
X351018Y112314D02*
X355111Y116408D01*
X351018Y75994D02*
Y112314D01*
X428123Y141732D02*
X448983D01*
X417993Y131603D02*
X428123Y141732D01*
X417993Y131603D02*
X417993D01*
X372669Y59122D02*
X377915Y64368D01*
X377915D01*
X371426Y59122D02*
X372669D01*
X358268Y108695D02*
Y113029D01*
X356146Y113908D02*
X357389D01*
X358268Y113029D01*
X353518Y111279D02*
X356146Y113908D01*
X358054Y108481D02*
X358268Y108695D01*
X353518Y77030D02*
X371426Y59122D01*
X353518Y77030D02*
Y111279D01*
X450185Y131425D02*
X450951D01*
X451830Y132304D01*
X448983Y141732D02*
X451830Y138885D01*
Y132304D02*
Y138885D01*
X454330Y126136D02*
X457198Y123268D01*
X447480Y128720D02*
X450185Y131425D01*
X457198Y123268D02*
X458661D01*
X454330Y126136D02*
Y139921D01*
X450018Y144232D02*
X454330Y139921D01*
D57*
X447480Y128720D02*
D03*
D58*
Y117815D02*
D03*
Y106909D02*
D03*
Y96000D02*
D03*
Y85094D02*
D03*
X458661Y123268D02*
D03*
Y112362D02*
D03*
Y101457D02*
D03*
Y90551D02*
D03*
D59*
X453071Y57693D02*
D03*
Y156122D02*
D03*
D60*
X41181Y40866D02*
D03*
X51181D02*
D03*
X61181D02*
D03*
X71181D02*
D03*
X81181D02*
D03*
X41181Y50866D02*
D03*
X51181D02*
D03*
X61181D02*
D03*
X71181D02*
D03*
X81181D02*
D03*
X41181Y60866D02*
D03*
X51181D02*
D03*
X61181D02*
D03*
X71181D02*
D03*
X81181D02*
D03*
X41181Y70866D02*
D03*
X51181D02*
D03*
X61181D02*
D03*
X71181D02*
D03*
X81181D02*
D03*
X41181Y80866D02*
D03*
X51181D02*
D03*
X61181D02*
D03*
X71181D02*
D03*
X81181D02*
D03*
D61*
X234252Y226378D02*
D03*
Y256378D02*
D03*
Y266378D02*
D03*
Y206378D02*
D03*
X188976Y226378D02*
D03*
Y256378D02*
D03*
Y266378D02*
D03*
Y206378D02*
D03*
D62*
X330394Y241659D02*
D03*
Y201659D02*
D03*
X370394D02*
D03*
X370394Y241659D02*
D03*
X299528D02*
D03*
X299528Y201659D02*
D03*
X259528D02*
D03*
Y241659D02*
D03*
D63*
X350394Y216620D02*
D03*
X279528D02*
D03*
D64*
X456535Y242921D02*
D03*
D65*
X449528Y238925D02*
D03*
X456535Y234929D02*
D03*
X449528Y230933D02*
D03*
X456535Y226937D02*
D03*
X449528Y222941D02*
D03*
X456535Y218945D02*
D03*
X449528Y214949D02*
D03*
X430551Y255945D02*
D03*
Y246925D02*
D03*
Y210941D02*
D03*
Y201925D02*
D03*
D66*
X453031Y260945D02*
D03*
Y196925D02*
D03*
D67*
X466535Y253937D02*
D03*
Y203937D02*
D03*
D68*
X462598Y303150D02*
D03*
Y17717D02*
D03*
X19685D02*
D03*
Y303150D02*
D03*
D69*
X364411Y50864D02*
D03*
D70*
X377915Y64368D02*
D03*
Y37361D02*
D03*
X350907D02*
D03*
D71*
X80709Y286063D02*
D03*
X70709D02*
D03*
X60709D02*
D03*
X50709D02*
D03*
X40709D02*
D03*
Y276063D02*
D03*
X50709D02*
D03*
X60709D02*
D03*
X70709D02*
D03*
X80709D02*
D03*
Y266063D02*
D03*
X70709D02*
D03*
X60709D02*
D03*
X50709D02*
D03*
X40709D02*
D03*
Y256063D02*
D03*
X50709D02*
D03*
X60709D02*
D03*
X70709D02*
D03*
X80709D02*
D03*
Y246063D02*
D03*
X70709D02*
D03*
X60709D02*
D03*
X50709D02*
D03*
X40709D02*
D03*
D72*
X358268Y122047D02*
D03*
X358054Y108481D02*
D03*
X222441Y198819D02*
D03*
X145669Y173228D02*
D03*
X234252Y175197D02*
D03*
X137008Y153951D02*
D03*
X141732Y94488D02*
D03*
X269685Y82677D02*
D03*
X263779Y145669D02*
D03*
X216535Y137795D02*
D03*
Y163386D02*
D03*
X179134Y196850D02*
D03*
X116142Y114173D02*
D03*
X312739Y119025D02*
D03*
X261811Y114173D02*
D03*
X240158D02*
D03*
X210630Y98425D02*
D03*
X147638Y141732D02*
D03*
X327416Y113855D02*
D03*
M02*
