G04*
G04 #@! TF.GenerationSoftware,Altium Limited,Altium Designer,24.0.1 (36)*
G04*
G04 Layer_Color=16711935*
%FSLAX25Y25*%
%MOIN*%
G70*
G04*
G04 #@! TF.SameCoordinates,5056A850-21AB-491F-975B-471AADAA3ABC*
G04*
G04*
G04 #@! TF.FilePolarity,Negative*
G04*
G01*
G75*
%ADD37R,0.07709X0.07709*%
%ADD38C,0.07709*%
%ADD39C,0.19580*%
%ADD40C,0.09855*%
%ADD41C,0.08674*%
%ADD42C,0.08450*%
%ADD43C,0.14087*%
%ADD44R,0.06556X0.06556*%
%ADD45C,0.06556*%
%ADD46C,0.10367*%
%ADD47C,0.07296*%
%ADD48C,0.20485*%
%ADD49C,0.07001*%
%ADD50C,0.11725*%
%ADD51C,0.10052*%
%ADD52C,0.05800*%
D37*
X447480Y128720D02*
D03*
D38*
Y117815D02*
D03*
Y106909D02*
D03*
Y96000D02*
D03*
Y85094D02*
D03*
X458661Y123268D02*
D03*
Y112362D02*
D03*
Y101457D02*
D03*
Y90551D02*
D03*
D39*
X453071Y57693D02*
D03*
Y156122D02*
D03*
D40*
X41181Y40866D02*
D03*
X51181D02*
D03*
X61181D02*
D03*
X71181D02*
D03*
X81181D02*
D03*
X41181Y50866D02*
D03*
X51181D02*
D03*
X61181D02*
D03*
X71181D02*
D03*
X81181D02*
D03*
X41181Y60866D02*
D03*
X51181D02*
D03*
X61181D02*
D03*
X71181D02*
D03*
X81181D02*
D03*
X41181Y70866D02*
D03*
X51181D02*
D03*
X61181D02*
D03*
X71181D02*
D03*
X81181D02*
D03*
X41181Y80866D02*
D03*
X51181D02*
D03*
X61181D02*
D03*
X71181D02*
D03*
X81181D02*
D03*
D41*
X234252Y226378D02*
D03*
Y256378D02*
D03*
Y266378D02*
D03*
Y206378D02*
D03*
X188976Y226378D02*
D03*
Y256378D02*
D03*
Y266378D02*
D03*
Y206378D02*
D03*
D42*
X330394Y241659D02*
D03*
Y201659D02*
D03*
X370394D02*
D03*
X370394Y241659D02*
D03*
X299528D02*
D03*
X299528Y201659D02*
D03*
X259528D02*
D03*
Y241659D02*
D03*
D43*
X350394Y216620D02*
D03*
X279528D02*
D03*
D44*
X456535Y242921D02*
D03*
D45*
X449528Y238925D02*
D03*
X456535Y234929D02*
D03*
X449528Y230933D02*
D03*
X456535Y226937D02*
D03*
X449528Y222941D02*
D03*
X456535Y218945D02*
D03*
X449528Y214949D02*
D03*
X430551Y255945D02*
D03*
Y246925D02*
D03*
Y210941D02*
D03*
Y201925D02*
D03*
D46*
X453031Y260945D02*
D03*
Y196925D02*
D03*
D47*
X466535Y253937D02*
D03*
Y203937D02*
D03*
D48*
X462598Y303150D02*
D03*
Y17717D02*
D03*
X19685D02*
D03*
Y303150D02*
D03*
D49*
X364411Y50864D02*
D03*
D50*
X377915Y64368D02*
D03*
Y37361D02*
D03*
X350907D02*
D03*
D51*
X80709Y286063D02*
D03*
X70709D02*
D03*
X60709D02*
D03*
X50709D02*
D03*
X40709D02*
D03*
Y276063D02*
D03*
X50709D02*
D03*
X60709D02*
D03*
X70709D02*
D03*
X80709D02*
D03*
Y266063D02*
D03*
X70709D02*
D03*
X60709D02*
D03*
X50709D02*
D03*
X40709D02*
D03*
Y256063D02*
D03*
X50709D02*
D03*
X60709D02*
D03*
X70709D02*
D03*
X80709D02*
D03*
Y246063D02*
D03*
X70709D02*
D03*
X60709D02*
D03*
X50709D02*
D03*
X40709D02*
D03*
D52*
X358268Y122047D02*
D03*
X358054Y108481D02*
D03*
X222441Y198819D02*
D03*
X145669Y173228D02*
D03*
X234252Y175197D02*
D03*
X137008Y153951D02*
D03*
X141732Y94488D02*
D03*
X269685Y82677D02*
D03*
X263779Y145669D02*
D03*
X216535Y137795D02*
D03*
Y163386D02*
D03*
X179134Y196850D02*
D03*
X116142Y114173D02*
D03*
X312739Y119025D02*
D03*
X261811Y114173D02*
D03*
X240158D02*
D03*
X210630Y98425D02*
D03*
X147638Y141732D02*
D03*
X327416Y113855D02*
D03*
M02*
