G04*
G04 #@! TF.GenerationSoftware,Altium Limited,Altium Designer,24.0.1 (36)*
G04*
G04 Layer_Physical_Order=1*
G04 Layer_Color=255*
%FSLAX25Y25*%
%MOIN*%
G70*
G04*
G04 #@! TF.SameCoordinates,49A474B6-B67E-421F-8E08-9CB75DBABD34*
G04*
G04*
G04 #@! TF.FilePolarity,Positive*
G04*
G01*
G75*
%ADD11C,0.01968*%
%ADD18R,0.02756X0.03543*%
%ADD19R,0.03543X0.02756*%
%ADD20R,0.03347X0.03740*%
%ADD21R,0.07284X0.02559*%
%ADD22R,0.02165X0.07874*%
%ADD23R,0.02165X0.07874*%
%ADD24R,0.04724X0.06496*%
%ADD25R,0.03543X0.03150*%
%ADD26R,0.03740X0.03347*%
%ADD27R,0.06496X0.04724*%
%ADD54C,0.03937*%
%ADD55C,0.01500*%
%ADD56C,0.03150*%
%ADD57C,0.07874*%
%ADD58R,0.06909X0.06909*%
%ADD59C,0.06909*%
%ADD60C,0.18779*%
%ADD61C,0.09055*%
%ADD62C,0.07650*%
%ADD63C,0.13287*%
%ADD64R,0.05756X0.05756*%
%ADD65C,0.05756*%
%ADD66C,0.09567*%
%ADD67C,0.06496*%
%ADD68C,0.19685*%
%ADD69C,0.06201*%
%ADD70C,0.10925*%
%ADD71C,0.09252*%
%ADD72C,0.05000*%
G36*
X480315Y9843D02*
X472114D01*
X471860Y10343D01*
X472714Y11518D01*
X473559Y13177D01*
X474134Y14947D01*
X474425Y16786D01*
Y18647D01*
X474134Y20486D01*
X473559Y22256D01*
X472714Y23915D01*
X471619Y25421D01*
X470303Y26737D01*
X468797Y27832D01*
X467138Y28677D01*
X465368Y29252D01*
X463529Y29543D01*
X461668D01*
X459829Y29252D01*
X458059Y28677D01*
X456400Y27832D01*
X454894Y26737D01*
X453578Y25421D01*
X452483Y23915D01*
X451638Y22256D01*
X451063Y20486D01*
X450772Y18647D01*
Y16786D01*
X451063Y14947D01*
X451638Y13177D01*
X452483Y11518D01*
X453337Y10343D01*
X453083Y9843D01*
X224410D01*
X208661Y25591D01*
Y82550D01*
X209123Y82742D01*
X221720Y70145D01*
X222051Y69924D01*
X222441Y69846D01*
X318898Y69846D01*
X319288Y69924D01*
X319619Y70145D01*
X337036Y87563D01*
X342520D01*
X342910Y87641D01*
X343241Y87862D01*
X343462Y88192D01*
X343539Y88583D01*
Y111805D01*
X355609D01*
X355719Y111695D01*
X355870Y111305D01*
X355865Y111298D01*
X355737Y111148D01*
X355570Y110974D01*
X355521Y110898D01*
X355253Y110630D01*
X354793Y109832D01*
X354554Y108942D01*
Y108021D01*
X354793Y107130D01*
X355253Y106332D01*
X355905Y105681D01*
X356703Y105220D01*
X357593Y104981D01*
X358515D01*
X359405Y105220D01*
X360203Y105681D01*
X360855Y106332D01*
X361316Y107130D01*
X361554Y108021D01*
Y108942D01*
X361316Y109832D01*
X360855Y110630D01*
X360587Y110898D01*
X360539Y110974D01*
X360371Y111148D01*
X360244Y111298D01*
X360239Y111305D01*
X360389Y111695D01*
X360499Y111805D01*
X360546D01*
X361229Y111941D01*
X361808Y112328D01*
X365029Y115549D01*
X365029Y115549D01*
X365211Y115821D01*
X455674Y206284D01*
X455674Y206284D01*
X456061Y206863D01*
X456196Y207545D01*
X456196Y207546D01*
Y212460D01*
X457482Y213746D01*
X457482Y213746D01*
X457869Y214325D01*
X458005Y215008D01*
X458005Y215008D01*
Y215267D01*
X458014Y215326D01*
X458032Y215331D01*
X458917Y215842D01*
X459639Y216564D01*
X460149Y217448D01*
X460413Y218434D01*
Y219455D01*
X460149Y220442D01*
X459639Y221326D01*
X458917Y222048D01*
X458032Y222559D01*
X457571Y222682D01*
Y223200D01*
X458032Y223323D01*
X458917Y223834D01*
X459639Y224556D01*
X460149Y225440D01*
X460413Y226427D01*
Y227448D01*
X460149Y228434D01*
X459639Y229318D01*
X458917Y230040D01*
X458032Y230551D01*
X457571Y230674D01*
Y231192D01*
X458032Y231315D01*
X458917Y231826D01*
X459639Y232548D01*
X460149Y233432D01*
X460413Y234419D01*
Y235440D01*
X460149Y236426D01*
X459639Y237310D01*
X458917Y238032D01*
X458032Y238543D01*
X458030Y238543D01*
X458096Y239043D01*
X460413D01*
Y246799D01*
X452658D01*
Y241987D01*
X452157Y241779D01*
X451909Y242028D01*
X451024Y242539D01*
X450038Y242803D01*
X449017D01*
X448031Y242539D01*
X447146Y242028D01*
X446424Y241306D01*
X445914Y240422D01*
X445650Y239436D01*
Y238415D01*
X445914Y237428D01*
X446424Y236544D01*
X447146Y235822D01*
X448031Y235312D01*
X448492Y235188D01*
Y234670D01*
X448031Y234547D01*
X447146Y234036D01*
X446424Y233314D01*
X445914Y232430D01*
X445650Y231444D01*
Y230422D01*
X445914Y229436D01*
X446424Y228552D01*
X447146Y227830D01*
X448031Y227319D01*
X448492Y227196D01*
Y226678D01*
X448031Y226555D01*
X447146Y226044D01*
X446424Y225322D01*
X445914Y224438D01*
X445650Y223451D01*
Y222430D01*
X445914Y221444D01*
X446424Y220560D01*
X447146Y219838D01*
X448031Y219327D01*
X448492Y219204D01*
Y218686D01*
X448031Y218563D01*
X447146Y218052D01*
X446424Y217330D01*
X445914Y216446D01*
X445650Y215459D01*
Y214438D01*
X445914Y213452D01*
X446424Y212568D01*
X447146Y211846D01*
X448031Y211335D01*
X449017Y211071D01*
X450038D01*
X450128Y211002D01*
Y209320D01*
X362178Y121371D01*
X361768Y121667D01*
Y122508D01*
X361529Y123398D01*
X361068Y124196D01*
X360417Y124848D01*
X359619Y125309D01*
X358729Y125547D01*
X357807D01*
X356917Y125309D01*
X356119Y124848D01*
X355467Y124196D01*
X355006Y123398D01*
X354768Y122508D01*
Y121587D01*
X355006Y120696D01*
X355467Y119898D01*
X355734Y119631D01*
X355783Y119555D01*
X355951Y119380D01*
X356078Y119231D01*
X356186Y119085D01*
X356274Y118945D01*
X356346Y118809D01*
X356402Y118677D01*
X356445Y118548D01*
X356474Y118421D01*
X356480Y118374D01*
X356479Y117874D01*
X343539D01*
Y143701D01*
X343462Y144091D01*
X343241Y144422D01*
X342910Y144643D01*
X342520Y144720D01*
X337036D01*
X323556Y158201D01*
X323225Y158422D01*
X322835Y158500D01*
X249121Y158500D01*
X246295Y161326D01*
Y238976D01*
X246218Y239367D01*
X245996Y239697D01*
X240878Y244815D01*
X240548Y245037D01*
X240158Y245114D01*
X230315D01*
X229925Y245037D01*
X229594Y244815D01*
X204003Y219225D01*
X203782Y218894D01*
X203705Y218504D01*
X198152D01*
Y239876D01*
X198074Y240266D01*
X197853Y240597D01*
X193634Y244815D01*
X193634Y244815D01*
X193304Y245037D01*
X192913Y245114D01*
X183071D01*
X182681Y245037D01*
X182350Y244815D01*
X177627Y240093D01*
X177165Y240284D01*
Y295276D01*
X453747D01*
X454894Y294129D01*
X456400Y293035D01*
X458059Y292189D01*
X459829Y291614D01*
X461668Y291323D01*
X463529D01*
X465368Y291614D01*
X467138Y292189D01*
X468797Y293035D01*
X470303Y294129D01*
X471450Y295276D01*
X480315D01*
Y9843D01*
D02*
G37*
G36*
X85293Y237509D02*
X31159D01*
Y292628D01*
X85293D01*
Y237509D01*
D02*
G37*
G36*
X83491Y236074D02*
X83592Y234814D01*
X83681Y234302D01*
X83795Y233869D01*
X83935Y233515D01*
X84099Y233239D01*
X84289Y233043D01*
X84505Y232924D01*
X84746Y232885D01*
X78274D01*
X78515Y232924D01*
X78730Y233043D01*
X78920Y233239D01*
X79085Y233515D01*
X79224Y233869D01*
X79339Y234302D01*
X79427Y234814D01*
X79491Y235405D01*
X79541Y236822D01*
X83478D01*
X83491Y236074D01*
D02*
G37*
G36*
X457500Y216233D02*
X457400Y216187D01*
X457309Y216124D01*
X457230Y216044D01*
X457161Y215947D01*
X457103Y215833D01*
X457055Y215702D01*
X457018Y215554D01*
X456992Y215389D01*
X456976Y215207D01*
X456970Y215008D01*
X455470D01*
X455466Y215240D01*
X455428Y215650D01*
X455396Y215827D01*
X455354Y215987D01*
X455302Y216127D01*
X455242Y216250D01*
X455172Y216354D01*
X455092Y216441D01*
X455004Y216508D01*
X457500Y216233D01*
D02*
G37*
G36*
X84360Y217141D02*
X84092Y217046D01*
X83856Y216888D01*
X83652Y216667D01*
X83478Y216383D01*
X83337Y216035D01*
X83226Y215624D01*
X83148Y215149D01*
X83100Y214612D01*
X83085Y214011D01*
X79935D01*
X79919Y214612D01*
X79872Y215149D01*
X79793Y215624D01*
X79683Y216035D01*
X79541Y216383D01*
X79368Y216667D01*
X79163Y216888D01*
X78927Y217046D01*
X78659Y217141D01*
X78360Y217173D01*
X84659D01*
X84360Y217141D01*
D02*
G37*
G36*
X191396Y214716D02*
X190829Y214030D01*
X190598Y213691D01*
X190403Y213353D01*
X190244Y213018D01*
X190120Y212685D01*
X190032Y212355D01*
X189978Y212026D01*
X189961Y211700D01*
X187992D01*
X187974Y212026D01*
X187921Y212355D01*
X187833Y212685D01*
X187709Y213018D01*
X187549Y213353D01*
X187354Y213691D01*
X187124Y214030D01*
X186858Y214372D01*
X186557Y214716D01*
X186221Y215062D01*
X191732D01*
X191396Y214716D01*
D02*
G37*
G36*
X451969Y213406D02*
X451953Y213326D01*
X451953Y213240D01*
X451971Y213148D01*
X452007Y213050D01*
X452059Y212946D01*
X452129Y212837D01*
X452216Y212721D01*
X452321Y212600D01*
X452442Y212473D01*
X451382Y211412D01*
X451222Y211567D01*
X450928Y211823D01*
X450795Y211924D01*
X450670Y212006D01*
X450554Y212071D01*
X450448Y212117D01*
X450350Y212145D01*
X450260Y212154D01*
X450180Y212146D01*
X452002Y213480D01*
X451969Y213406D01*
D02*
G37*
G36*
X83100Y211814D02*
X83148Y211279D01*
X83226Y210806D01*
X83337Y210397D01*
X83478Y210050D01*
X83652Y209767D01*
X83856Y209546D01*
X84092Y209389D01*
X84360Y209294D01*
X84659Y209263D01*
X78360D01*
X78659Y209294D01*
X78927Y209389D01*
X79163Y209546D01*
X79368Y209767D01*
X79541Y210050D01*
X79683Y210397D01*
X79793Y210806D01*
X79872Y211279D01*
X79919Y211814D01*
X79935Y212413D01*
X83085D01*
X83100Y211814D01*
D02*
G37*
G36*
X175382Y194082D02*
X172650D01*
X172797Y194102D01*
X172929Y194161D01*
X173045Y194260D01*
X173146Y194397D01*
X173231Y194575D01*
X173301Y194791D01*
X173355Y195047D01*
X173394Y195342D01*
X173417Y195677D01*
X173425Y196051D01*
X175394D01*
X175382Y194082D01*
D02*
G37*
G36*
X84360Y193519D02*
X84092Y193424D01*
X83856Y193266D01*
X83652Y193045D01*
X83478Y192761D01*
X83337Y192413D01*
X83226Y192002D01*
X83148Y191527D01*
X83100Y190990D01*
X83085Y190389D01*
X79935D01*
X79919Y190990D01*
X79872Y191527D01*
X79793Y192002D01*
X79683Y192413D01*
X79541Y192761D01*
X79368Y193045D01*
X79163Y193266D01*
X78927Y193424D01*
X78659Y193519D01*
X78360Y193551D01*
X84659D01*
X84360Y193519D01*
D02*
G37*
G36*
X175384Y190543D02*
X175386Y190484D01*
X175394Y188595D01*
X173425D01*
X173417Y188969D01*
X173355Y189599D01*
X173301Y189855D01*
X173231Y190071D01*
X173146Y190248D01*
X173045Y190386D01*
X172929Y190484D01*
X172797Y190543D01*
X172650Y190563D01*
X175382D01*
X175384Y190543D01*
D02*
G37*
G36*
X83100Y188192D02*
X83148Y187657D01*
X83226Y187184D01*
X83337Y186775D01*
X83478Y186428D01*
X83652Y186145D01*
X83856Y185924D01*
X84092Y185767D01*
X84360Y185672D01*
X84659Y185641D01*
X78360D01*
X78659Y185672D01*
X78927Y185767D01*
X79163Y185924D01*
X79368Y186145D01*
X79541Y186428D01*
X79683Y186775D01*
X79793Y187184D01*
X79872Y187657D01*
X79919Y188192D01*
X79935Y188791D01*
X83085D01*
X83100Y188192D01*
D02*
G37*
G36*
X175382Y184240D02*
X172650D01*
X172797Y184260D01*
X172929Y184319D01*
X173045Y184417D01*
X173146Y184555D01*
X173231Y184732D01*
X173301Y184949D01*
X173355Y185205D01*
X173394Y185500D01*
X173417Y185834D01*
X173425Y186208D01*
X175394D01*
X175382Y184240D01*
D02*
G37*
G36*
X175384Y180701D02*
X175386Y180642D01*
X175394Y178752D01*
X173425D01*
X173417Y179126D01*
X173355Y179756D01*
X173301Y180012D01*
X173231Y180228D01*
X173146Y180406D01*
X173045Y180543D01*
X172929Y180642D01*
X172797Y180701D01*
X172650Y180721D01*
X175382D01*
X175384Y180701D01*
D02*
G37*
G36*
X175382Y174397D02*
X172650D01*
X172797Y174417D01*
X172929Y174476D01*
X173045Y174575D01*
X173146Y174712D01*
X173231Y174890D01*
X173301Y175106D01*
X173355Y175362D01*
X173394Y175657D01*
X173417Y175992D01*
X173425Y176366D01*
X175394D01*
X175382Y174397D01*
D02*
G37*
G36*
X175384Y170859D02*
X175386Y170799D01*
X175394Y168910D01*
X173425D01*
X173417Y169284D01*
X173355Y169914D01*
X173301Y170169D01*
X173231Y170386D01*
X173146Y170563D01*
X173045Y170701D01*
X172929Y170799D01*
X172797Y170859D01*
X172650Y170878D01*
X175382D01*
X175384Y170859D01*
D02*
G37*
G36*
X84360Y169897D02*
X84092Y169802D01*
X83856Y169644D01*
X83652Y169423D01*
X83478Y169138D01*
X83337Y168791D01*
X83226Y168380D01*
X83148Y167905D01*
X83100Y167368D01*
X83085Y166767D01*
X79935D01*
X79919Y167368D01*
X79872Y167905D01*
X79793Y168380D01*
X79683Y168791D01*
X79541Y169138D01*
X79368Y169423D01*
X79163Y169644D01*
X78927Y169802D01*
X78659Y169897D01*
X78360Y169929D01*
X84659D01*
X84360Y169897D01*
D02*
G37*
G36*
X83100Y164570D02*
X83148Y164035D01*
X83226Y163562D01*
X83337Y163153D01*
X83478Y162806D01*
X83652Y162523D01*
X83856Y162302D01*
X84092Y162145D01*
X84360Y162050D01*
X84659Y162019D01*
X78360D01*
X78659Y162050D01*
X78927Y162145D01*
X79163Y162302D01*
X79368Y162523D01*
X79541Y162806D01*
X79683Y163153D01*
X79793Y163562D01*
X79872Y164035D01*
X79919Y164570D01*
X79935Y165168D01*
X83085D01*
X83100Y164570D01*
D02*
G37*
G36*
X140390Y155941D02*
X140220Y155760D01*
X140069Y155577D01*
X139935Y155389D01*
X139820Y155198D01*
X139723Y155003D01*
X139644Y154805D01*
X139583Y154603D01*
X139540Y154398D01*
X139515Y154189D01*
X139508Y153976D01*
X137033Y156451D01*
X137246Y156458D01*
X137455Y156483D01*
X137660Y156526D01*
X137862Y156587D01*
X138060Y156666D01*
X138255Y156763D01*
X138446Y156878D01*
X138633Y157012D01*
X138817Y157163D01*
X138998Y157333D01*
X140390Y155941D01*
D02*
G37*
G36*
X197132Y239876D02*
X197132Y179415D01*
X171260Y153543D01*
X159449Y153543D01*
X153543Y147638D01*
X153543Y96457D01*
X147638Y90551D01*
X137795D01*
X131890Y96457D01*
Y97925D01*
X137349D01*
X138123Y98079D01*
X138780Y98517D01*
X142327Y102064D01*
X142765Y102720D01*
X142919Y103494D01*
Y103931D01*
X142930Y104058D01*
X142963Y104259D01*
X142998Y104394D01*
X145783D01*
Y108953D01*
X145783Y108953D01*
Y109394D01*
X145783D01*
X145783Y109453D01*
Y113953D01*
X145783D01*
Y114394D01*
X145783D01*
Y118894D01*
X145783Y118953D01*
Y119394D01*
X145783Y119453D01*
Y123953D01*
X139361D01*
X139031Y124283D01*
Y132767D01*
X139043Y133025D01*
X139047Y133055D01*
X139386D01*
Y134029D01*
X139393Y134067D01*
X139386Y134105D01*
Y137548D01*
X139393Y137586D01*
X139386Y137625D01*
Y138598D01*
X139055D01*
X139031Y138975D01*
Y142610D01*
X139043Y142867D01*
X139047Y142898D01*
X139386D01*
Y143871D01*
X139393Y143910D01*
X139386Y143948D01*
Y147391D01*
X139393Y147429D01*
X139386Y147467D01*
Y148441D01*
X139055D01*
X139031Y148817D01*
Y150471D01*
X139034Y150503D01*
X139060Y150657D01*
X139095Y150796D01*
X139137Y150924D01*
X139187Y151041D01*
X139245Y151149D01*
X139311Y151250D01*
X139386Y151345D01*
X139450Y151414D01*
X139504Y151455D01*
X140065Y152186D01*
X140418Y153037D01*
X140538Y153951D01*
X140529Y154018D01*
X140532Y154112D01*
X140547Y154233D01*
X140571Y154351D01*
X140607Y154468D01*
X140654Y154586D01*
X140714Y154706D01*
X140788Y154829D01*
X140879Y154956D01*
X140899Y154981D01*
X145312Y159394D01*
X167323D01*
X168097Y159548D01*
X168753Y159987D01*
X175840Y167073D01*
X176279Y167730D01*
X176433Y168504D01*
Y182480D01*
Y192323D01*
Y195225D01*
X190407Y209199D01*
X190846Y209856D01*
X190999Y210630D01*
Y211954D01*
X191030Y212141D01*
X191092Y212375D01*
X191184Y212621D01*
X191307Y212879D01*
X191463Y213149D01*
X191645Y213418D01*
X192155Y214035D01*
X192367Y214253D01*
X192498Y214353D01*
X193289Y215384D01*
X193786Y216585D01*
X193956Y217874D01*
X193786Y219163D01*
X193289Y220364D01*
X192498Y221395D01*
X191466Y222186D01*
X190460Y222603D01*
Y223145D01*
X191466Y223562D01*
X192498Y224353D01*
X193289Y225384D01*
X193786Y226585D01*
X193956Y227874D01*
X193786Y229163D01*
X193289Y230364D01*
X192498Y231395D01*
X191466Y232187D01*
X190265Y232684D01*
X188976Y232854D01*
X187688Y232684D01*
X186487Y232187D01*
X185455Y231395D01*
X184664Y230364D01*
X184167Y229163D01*
X183997Y227874D01*
X184167Y226585D01*
X184664Y225384D01*
X185455Y224353D01*
X186487Y223562D01*
X187493Y223145D01*
Y222603D01*
X186487Y222186D01*
X185455Y221395D01*
X184664Y220364D01*
X184167Y219163D01*
X183997Y217874D01*
X184167Y216585D01*
X184664Y215384D01*
X185455Y214353D01*
X185585Y214253D01*
X185808Y214025D01*
X186072Y213723D01*
X186299Y213431D01*
X186490Y213149D01*
X186646Y212879D01*
X186769Y212621D01*
X186860Y212375D01*
X186923Y212141D01*
X186953Y211954D01*
Y211468D01*
X172979Y197494D01*
X172540Y196837D01*
X172386Y196063D01*
Y195546D01*
X172379Y195444D01*
X172350Y195220D01*
X172323Y195095D01*
X171638D01*
Y194121D01*
X171630Y194082D01*
X171638Y194044D01*
Y190601D01*
X171630Y190563D01*
X171638Y190525D01*
Y189551D01*
X172323D01*
X172346Y189442D01*
X172386Y189036D01*
Y185704D01*
X172379Y185602D01*
X172350Y185377D01*
X172323Y185252D01*
X171638D01*
Y184278D01*
X171630Y184240D01*
X171638Y184202D01*
Y180759D01*
X171630Y180721D01*
X171638Y180683D01*
Y179709D01*
X172323D01*
X172346Y179600D01*
X172386Y179193D01*
Y175862D01*
X172379Y175759D01*
X172350Y175534D01*
X172323Y175409D01*
X171638D01*
Y174436D01*
X171630Y174397D01*
X171638Y174359D01*
Y170916D01*
X171630Y170878D01*
X171638Y170840D01*
Y169866D01*
X172323D01*
X172346Y169757D01*
X172386Y169351D01*
Y169342D01*
X166485Y163440D01*
X144474D01*
X143700Y163286D01*
X143044Y162848D01*
X138038Y157842D01*
X138013Y157822D01*
X137886Y157732D01*
X137763Y157657D01*
X137643Y157597D01*
X137525Y157550D01*
X137408Y157515D01*
X137289Y157490D01*
X137169Y157475D01*
X137075Y157472D01*
X137008Y157481D01*
X136094Y157361D01*
X135243Y157008D01*
X134512Y156447D01*
X133951Y155716D01*
X133598Y154865D01*
X133478Y153951D01*
X133598Y153037D01*
X133951Y152186D01*
X134512Y151455D01*
X134565Y151414D01*
X134629Y151345D01*
X134705Y151250D01*
X134771Y151149D01*
X134828Y151041D01*
X134879Y150924D01*
X134921Y150796D01*
X134956Y150657D01*
X134982Y150503D01*
X134985Y150471D01*
Y148729D01*
X134972Y148471D01*
X134969Y148441D01*
X134630D01*
Y147467D01*
X134622Y147429D01*
X134630Y147391D01*
Y143948D01*
X134622Y143910D01*
X134630Y143871D01*
Y142898D01*
X134960D01*
X134985Y142521D01*
Y138886D01*
X134972Y138629D01*
X134969Y138598D01*
X134630D01*
Y137625D01*
X134622Y137586D01*
X134630Y137548D01*
Y134105D01*
X134622Y134067D01*
X134630Y134029D01*
Y133055D01*
X134960D01*
X134985Y132679D01*
Y123445D01*
X135139Y122671D01*
X135577Y122014D01*
X136500Y121092D01*
Y119453D01*
X136500Y119394D01*
Y118953D01*
X136000Y118830D01*
X133913Y120917D01*
Y124016D01*
X133759Y124790D01*
X133320Y125446D01*
X131890Y126877D01*
Y167323D01*
X173228Y208661D01*
Y234252D01*
X183071Y244094D01*
X192913D01*
X197132Y239876D01*
D02*
G37*
G36*
X138612Y152010D02*
X138482Y151845D01*
X138367Y151669D01*
X138268Y151483D01*
X138184Y151287D01*
X138115Y151081D01*
X138061Y150864D01*
X138023Y150637D01*
X138000Y150400D01*
X137992Y150153D01*
X136024D01*
X136016Y150400D01*
X135993Y150637D01*
X135955Y150864D01*
X135901Y151081D01*
X135832Y151287D01*
X135748Y151483D01*
X135648Y151669D01*
X135533Y151845D01*
X135403Y152010D01*
X135258Y152166D01*
X138758D01*
X138612Y152010D01*
D02*
G37*
G36*
X137996Y149023D02*
X138053Y148138D01*
X138088Y147921D01*
X138129Y147744D01*
X138179Y147606D01*
X138236Y147508D01*
X138301Y147449D01*
X138374Y147429D01*
X135642D01*
X135714Y147449D01*
X135779Y147508D01*
X135837Y147606D01*
X135886Y147744D01*
X135928Y147921D01*
X135963Y148138D01*
X135989Y148393D01*
X136020Y149023D01*
X136024Y149398D01*
X137992D01*
X137996Y149023D01*
D02*
G37*
G36*
X84360Y146275D02*
X84092Y146180D01*
X83856Y146022D01*
X83652Y145801D01*
X83478Y145516D01*
X83337Y145169D01*
X83226Y144758D01*
X83148Y144283D01*
X83100Y143746D01*
X83085Y143145D01*
X79935D01*
X79919Y143746D01*
X79872Y144283D01*
X79793Y144758D01*
X79683Y145169D01*
X79541Y145516D01*
X79368Y145801D01*
X79163Y146022D01*
X78927Y146180D01*
X78659Y146275D01*
X78360Y146307D01*
X84659D01*
X84360Y146275D01*
D02*
G37*
G36*
X302569Y144394D02*
X302402Y144334D01*
X302254Y144236D01*
X302126Y144097D01*
X302018Y143919D01*
X301929Y143701D01*
X301860Y143443D01*
X301811Y143146D01*
X301782Y142810D01*
X301772Y142433D01*
X299803D01*
X299793Y142810D01*
X299764Y143146D01*
X299715Y143443D01*
X299646Y143701D01*
X299557Y143919D01*
X299449Y144097D01*
X299321Y144236D01*
X299173Y144334D01*
X299006Y144394D01*
X298819Y144414D01*
X302756D01*
X302569Y144394D01*
D02*
G37*
G36*
X138301Y143890D02*
X138236Y143831D01*
X138179Y143733D01*
X138129Y143595D01*
X138088Y143418D01*
X138053Y143201D01*
X138026Y142945D01*
X137996Y142315D01*
X137992Y141941D01*
X136024D01*
X136020Y142315D01*
X135963Y143201D01*
X135928Y143418D01*
X135886Y143595D01*
X135837Y143733D01*
X135779Y143831D01*
X135714Y143890D01*
X135642Y143910D01*
X138374D01*
X138301Y143890D01*
D02*
G37*
G36*
X137996Y139181D02*
X138053Y138295D01*
X138088Y138079D01*
X138129Y137901D01*
X138179Y137764D01*
X138236Y137665D01*
X138301Y137606D01*
X138374Y137586D01*
X135642D01*
X135714Y137606D01*
X135779Y137665D01*
X135837Y137764D01*
X135886Y137901D01*
X135928Y138079D01*
X135963Y138295D01*
X135989Y138551D01*
X136020Y139181D01*
X136024Y139555D01*
X137992D01*
X137996Y139181D01*
D02*
G37*
G36*
X300789Y139555D02*
X300401Y139153D01*
X299791Y138431D01*
X299568Y138112D01*
X299401Y137820D01*
X299391Y137795D01*
X299401Y137772D01*
X299568Y137480D01*
X299790Y137160D01*
X300068Y136813D01*
X300789Y136036D01*
X299397Y134644D01*
X299120Y134908D01*
X298843Y135145D01*
X298567Y135354D01*
X298292Y135535D01*
X298019Y135688D01*
X297746Y135813D01*
X297474Y135910D01*
X297204Y135980D01*
X296934Y136022D01*
X296666Y136036D01*
X298394Y137797D01*
X296666Y139555D01*
X296934Y139569D01*
X297204Y139611D01*
X297474Y139680D01*
X297746Y139778D01*
X298019Y139903D01*
X298292Y140056D01*
X298567Y140237D01*
X298843Y140446D01*
X299120Y140682D01*
X299397Y140947D01*
X300789Y139555D01*
D02*
G37*
G36*
X138301Y134047D02*
X138236Y133988D01*
X138179Y133890D01*
X138129Y133752D01*
X138088Y133575D01*
X138053Y133359D01*
X138026Y133103D01*
X137996Y132473D01*
X137992Y132099D01*
X136024D01*
X136020Y132473D01*
X135963Y133359D01*
X135928Y133575D01*
X135886Y133752D01*
X135837Y133890D01*
X135779Y133988D01*
X135714Y134047D01*
X135642Y134067D01*
X138374D01*
X138301Y134047D01*
D02*
G37*
G36*
X83100Y133074D02*
X83148Y132538D01*
X83226Y132066D01*
X83337Y131657D01*
X83478Y131310D01*
X83652Y131027D01*
X83856Y130806D01*
X84092Y130649D01*
X84360Y130554D01*
X84659Y130523D01*
X78360D01*
X78659Y130554D01*
X78927Y130649D01*
X79163Y130806D01*
X79368Y131027D01*
X79541Y131310D01*
X79683Y131657D01*
X79793Y132066D01*
X79872Y132538D01*
X79919Y133074D01*
X79935Y133672D01*
X83085D01*
X83100Y133074D01*
D02*
G37*
G36*
X84754Y129954D02*
X84813Y129787D01*
X84912Y129639D01*
X85051Y129511D01*
X85229Y129403D01*
X85447Y129314D01*
X85704Y129245D01*
X86001Y129196D01*
X86338Y129167D01*
X86714Y129157D01*
Y127188D01*
X86338Y127179D01*
X86001Y127149D01*
X85704Y127100D01*
X85447Y127031D01*
X85229Y126942D01*
X85051Y126834D01*
X84912Y126706D01*
X84813Y126558D01*
X84754Y126391D01*
X84734Y126204D01*
Y127142D01*
X82623Y127058D01*
Y129287D01*
X82679Y129262D01*
X82795Y129240D01*
X82971Y129220D01*
X83861Y129178D01*
X84734Y129169D01*
Y130141D01*
X84754Y129954D01*
D02*
G37*
G36*
X303315Y127941D02*
X301173D01*
X301190Y127960D01*
X301204Y128019D01*
X301218Y128118D01*
X301238Y128433D01*
X301260Y129909D01*
X303228D01*
X303315Y127941D01*
D02*
G37*
G36*
X126969Y127188D02*
X126594Y127178D01*
X126260Y127148D01*
X125965Y127098D01*
X125709Y127027D01*
X125492Y126936D01*
X125315Y126826D01*
X125177Y126695D01*
X125079Y126544D01*
X125020Y126373D01*
X125000Y126181D01*
X123031D01*
X123012Y126373D01*
X122953Y126544D01*
X122854Y126695D01*
X122716Y126826D01*
X122539Y126936D01*
X122323Y127027D01*
X122067Y127098D01*
X121772Y127148D01*
X121437Y127178D01*
X121063Y127188D01*
X124016Y129157D01*
X126969Y127188D01*
D02*
G37*
G36*
X96864D02*
X96167Y127177D01*
X95651Y127142D01*
X95460Y127116D01*
X95315Y127085D01*
X95214Y127047D01*
X95159Y127004D01*
X95149Y126955D01*
X95184Y126900D01*
X93504Y125796D01*
X93220Y126061D01*
X92924Y126297D01*
X92617Y126506D01*
X92298Y126687D01*
X91968Y126840D01*
X91626Y126966D01*
X91273Y127063D01*
X90908Y127133D01*
X90531Y127174D01*
X90144Y127188D01*
X92520Y129157D01*
X96864Y127188D01*
D02*
G37*
G36*
X321929Y123438D02*
X321909Y123478D01*
X321850Y123514D01*
X321751Y123546D01*
X321614Y123574D01*
X321436Y123597D01*
X320964Y123631D01*
X319960Y123650D01*
Y125619D01*
X320336Y125629D01*
X320672Y125658D01*
X320969Y125707D01*
X321226Y125776D01*
X321444Y125865D01*
X321622Y125973D01*
X321761Y126101D01*
X321860Y126249D01*
X321920Y126416D01*
X321940Y126603D01*
X321929Y123438D01*
D02*
G37*
G36*
X303334Y126416D02*
X303394Y126249D01*
X303492Y126101D01*
X303630Y125973D01*
X303807Y125865D01*
X304023Y125776D01*
X304279Y125707D01*
X304575Y125658D01*
X304909Y125629D01*
X305283Y125619D01*
Y123650D01*
X304909Y123641D01*
X304575Y123611D01*
X304279Y123562D01*
X304023Y123493D01*
X303807Y123404D01*
X303630Y123296D01*
X303492Y123168D01*
X303394Y123021D01*
X303334Y122853D01*
X303315Y122666D01*
Y126603D01*
X303334Y126416D01*
D02*
G37*
G36*
X330293Y125630D02*
X330258Y125485D01*
X330262Y125321D01*
X330308Y125138D01*
X330394Y124936D01*
X330520Y124714D01*
X330687Y124473D01*
X330894Y124213D01*
X331142Y123933D01*
X331430Y123634D01*
X330566Y122377D01*
X330250Y122683D01*
X329686Y123161D01*
X329439Y123334D01*
X329216Y123462D01*
X329015Y123546D01*
X328838Y123585D01*
X328683Y123581D01*
X328552Y123531D01*
X328445Y123438D01*
X330369Y125756D01*
X330293Y125630D01*
D02*
G37*
G36*
X95480Y119890D02*
X95542Y119260D01*
X95596Y119004D01*
X95666Y118787D01*
X95752Y118610D01*
X95852Y118472D01*
X95969Y118374D01*
X96100Y118315D01*
X96248Y118295D01*
X92729D01*
X92876Y118315D01*
X93008Y118374D01*
X93124Y118472D01*
X93225Y118610D01*
X93310Y118787D01*
X93380Y119004D01*
X93434Y119260D01*
X93473Y119555D01*
X93496Y119890D01*
X93504Y120264D01*
X95472D01*
X95480Y119890D01*
D02*
G37*
G36*
X359828Y120064D02*
X359658Y119864D01*
X359508Y119661D01*
X359378Y119456D01*
X359268Y119247D01*
X359178Y119036D01*
X359108Y118822D01*
X359058Y118605D01*
X359028Y118385D01*
X359018Y118162D01*
X357518D01*
X357508Y118385D01*
X357478Y118605D01*
X357428Y118822D01*
X357358Y119036D01*
X357268Y119247D01*
X357158Y119456D01*
X357028Y119661D01*
X356878Y119864D01*
X356708Y120064D01*
X356518Y120262D01*
X360018D01*
X359828Y120064D01*
D02*
G37*
G36*
X245276Y238976D02*
Y160903D01*
X248698Y157480D01*
X322835Y157480D01*
X336614Y143701D01*
X342520D01*
Y117874D01*
X338653D01*
X331805Y124722D01*
X331675Y124869D01*
X331506Y125081D01*
X331384Y125257D01*
X331381Y125262D01*
Y125819D01*
X331384Y125850D01*
X331381Y125861D01*
Y128166D01*
X320917D01*
Y126751D01*
X320901Y126745D01*
X320753Y126705D01*
X320544Y126671D01*
X320398Y126658D01*
X304847D01*
X304703Y126671D01*
X304496Y126705D01*
X304350Y126744D01*
X304327Y126754D01*
Y127903D01*
X304334Y127941D01*
X304330Y127963D01*
X304333Y127986D01*
X304327Y128136D01*
Y128953D01*
X304291D01*
X304267Y129492D01*
Y133189D01*
X304113Y133963D01*
X303675Y134620D01*
X301170Y137124D01*
X300840Y137479D01*
X300608Y137770D01*
X300590Y137795D01*
X300600Y137809D01*
X301079Y138375D01*
X302218Y139514D01*
X302657Y140171D01*
X302811Y140945D01*
Y142873D01*
X302823Y143018D01*
X302858Y143228D01*
X302898Y143376D01*
X302903Y143390D01*
X304150D01*
Y151886D01*
X297425D01*
Y143390D01*
X298672D01*
X298677Y143376D01*
X298717Y143228D01*
X298751Y143018D01*
X298764Y142873D01*
Y141783D01*
X298331Y141350D01*
X298203Y141241D01*
X297978Y141070D01*
X297762Y140928D01*
X297556Y140813D01*
X297360Y140723D01*
X297175Y140656D01*
X296998Y140611D01*
X296829Y140584D01*
X296613Y140573D01*
X296588Y140567D01*
X295654D01*
Y139600D01*
X295646Y139564D01*
X295652Y139533D01*
X295647Y139502D01*
X295654Y139478D01*
Y136113D01*
X295647Y136088D01*
X295652Y136057D01*
X295646Y136026D01*
X295654Y135990D01*
Y135024D01*
X296588D01*
X296613Y135017D01*
X296829Y135006D01*
X296998Y134980D01*
X297175Y134935D01*
X297360Y134868D01*
X297556Y134778D01*
X297762Y134663D01*
X297978Y134520D01*
X298203Y134350D01*
X298331Y134241D01*
X300221Y132351D01*
Y128953D01*
X300161D01*
Y127979D01*
X300154Y127941D01*
X300161Y127903D01*
Y127882D01*
X300158Y127849D01*
X300161Y127837D01*
Y119079D01*
X304327D01*
Y122515D01*
X304350Y122525D01*
X304496Y122564D01*
X304703Y122599D01*
X304847Y122612D01*
X320917D01*
Y122425D01*
X321887D01*
X321925Y122418D01*
X321957Y122424D01*
X321990Y122420D01*
X322012Y122425D01*
X328355D01*
X328373Y122420D01*
X328414Y122425D01*
X328508D01*
X328539Y122422D01*
X328550Y122425D01*
X328959D01*
X329063Y122353D01*
X329490Y121990D01*
X336576Y114904D01*
X336683Y114567D01*
X336706Y114327D01*
X329370Y106991D01*
X329109Y106748D01*
X328900Y106580D01*
X328752Y106478D01*
X328286D01*
X328248Y106485D01*
X328210Y106478D01*
X320917D01*
Y105266D01*
X320901Y105260D01*
X320753Y105220D01*
X320544Y105185D01*
X320398Y105173D01*
X304847D01*
X304703Y105185D01*
X304496Y105220D01*
X304350Y105259D01*
X304327Y105269D01*
Y109661D01*
X300161D01*
Y100838D01*
X300154Y100799D01*
X300158Y100777D01*
X300155Y100755D01*
X300161Y100604D01*
Y99787D01*
X300197D01*
X300221Y99247D01*
Y97964D01*
X298331Y96074D01*
X298203Y95965D01*
X297978Y95795D01*
X297762Y95652D01*
X297556Y95537D01*
X297360Y95447D01*
X297175Y95380D01*
X296998Y95335D01*
X296829Y95309D01*
X296613Y95298D01*
X296588Y95291D01*
X295654D01*
Y94325D01*
X295646Y94289D01*
X295652Y94258D01*
X295647Y94227D01*
X295654Y94202D01*
Y90837D01*
X295647Y90813D01*
X295652Y90782D01*
X295646Y90751D01*
X295654Y90715D01*
Y89748D01*
X296588D01*
X296613Y89742D01*
X296829Y89731D01*
X296998Y89705D01*
X297175Y89659D01*
X297360Y89592D01*
X297556Y89503D01*
X297762Y89387D01*
X297978Y89245D01*
X298203Y89074D01*
X298331Y88965D01*
X298764Y88532D01*
Y85474D01*
X298751Y85328D01*
X298717Y85119D01*
X298677Y84971D01*
X298672Y84957D01*
X297425D01*
Y76461D01*
X304150D01*
Y84957D01*
X302903D01*
X302898Y84971D01*
X302858Y85119D01*
X302823Y85328D01*
X302811Y85474D01*
Y89370D01*
X302657Y90144D01*
X302218Y90801D01*
X301169Y91849D01*
X300841Y92203D01*
X300608Y92494D01*
X300590Y92520D01*
X300600Y92533D01*
X301079Y93099D01*
X303675Y95695D01*
X304113Y96352D01*
X304267Y97126D01*
Y99787D01*
X304327D01*
Y100761D01*
X304334Y100799D01*
X304630Y101054D01*
X304747Y101118D01*
X304847Y101127D01*
X320594D01*
X320879Y101111D01*
X320917Y101107D01*
Y100738D01*
X321887D01*
X321925Y100730D01*
X321964Y100738D01*
X331381D01*
Y103306D01*
X331389Y103345D01*
X331381Y103383D01*
Y103849D01*
X331475Y103985D01*
X331828Y104401D01*
X339232Y111805D01*
X342520D01*
Y88583D01*
X336614D01*
X318898Y70866D01*
X222441Y70866D01*
X196850Y96457D01*
Y153250D01*
X204724Y162874D01*
X204724Y218504D01*
X230315Y244094D01*
X240158D01*
X245276Y238976D01*
D02*
G37*
G36*
X137512Y115406D02*
X137492Y115460D01*
X137433Y115508D01*
X137335Y115550D01*
X137197Y115587D01*
X137020Y115618D01*
X136803Y115644D01*
X136252Y115678D01*
X135544Y115689D01*
Y117657D01*
X135917Y117660D01*
X137020Y117728D01*
X137197Y117760D01*
X137335Y117796D01*
X137433Y117839D01*
X137492Y117887D01*
X137512Y117941D01*
Y115406D01*
D02*
G37*
G36*
X83291Y114791D02*
X83124Y114732D01*
X82976Y114632D01*
X82848Y114494D01*
X82740Y114316D01*
X82652Y114098D01*
X82583Y113840D01*
X82533Y113543D01*
X82504Y113207D01*
X82494Y112830D01*
X80525D01*
X80516Y113207D01*
X80486Y113543D01*
X80437Y113840D01*
X80368Y114098D01*
X80279Y114316D01*
X80171Y114494D01*
X80043Y114632D01*
X79896Y114732D01*
X79728Y114791D01*
X79541Y114811D01*
X83478D01*
X83291Y114791D01*
D02*
G37*
G36*
X358814Y112144D02*
X358844Y111924D01*
X358894Y111707D01*
X358964Y111493D01*
X359054Y111282D01*
X359164Y111073D01*
X359294Y110867D01*
X359444Y110664D01*
X359614Y110464D01*
X359804Y110267D01*
X356304D01*
X356494Y110464D01*
X356664Y110664D01*
X356814Y110867D01*
X356944Y111073D01*
X357054Y111282D01*
X357144Y111493D01*
X357214Y111707D01*
X357264Y111924D01*
X357294Y112144D01*
X357304Y112366D01*
X358804D01*
X358814Y112144D01*
D02*
G37*
G36*
X127953Y117618D02*
Y110728D01*
X126378Y109153D01*
X114173D01*
X112205Y111122D01*
X112205Y117028D01*
X114567Y119390D01*
X126181D01*
X127953Y117618D01*
D02*
G37*
G36*
X96100Y110032D02*
X95969Y109973D01*
X95852Y109874D01*
X95752Y109736D01*
X95666Y109559D01*
X95596Y109343D01*
X95542Y109087D01*
X95503Y108791D01*
X95480Y108457D01*
X95472Y108083D01*
X93504D01*
X93496Y108457D01*
X93434Y109087D01*
X93380Y109343D01*
X93310Y109559D01*
X93225Y109736D01*
X93124Y109874D01*
X93008Y109973D01*
X92876Y110032D01*
X92729Y110051D01*
X96248D01*
X96100Y110032D01*
D02*
G37*
G36*
X142677Y110386D02*
X142510Y110327D01*
X142362Y110229D01*
X142235Y110091D01*
X142126Y109914D01*
X142038Y109697D01*
X141969Y109441D01*
X141924Y109171D01*
X141969Y108899D01*
X142038Y108642D01*
X142126Y108424D01*
X142235Y108246D01*
X142362Y108107D01*
X142510Y108008D01*
X142677Y107949D01*
X142865Y107929D01*
X138927D01*
X139114Y107949D01*
X139282Y108008D01*
X139429Y108107D01*
X139557Y108246D01*
X139666Y108424D01*
X139754Y108642D01*
X139823Y108899D01*
X139868Y109171D01*
X139823Y109441D01*
X139754Y109697D01*
X139666Y109914D01*
X139557Y110091D01*
X139429Y110229D01*
X139282Y110327D01*
X139114Y110386D01*
X138927Y110406D01*
X142865D01*
X142677Y110386D01*
D02*
G37*
G36*
X82503Y108791D02*
X82529Y108456D01*
X82573Y108161D01*
X82634Y107905D01*
X82713Y107688D01*
X82809Y107511D01*
X82922Y107373D01*
X83053Y107275D01*
X83202Y107216D01*
X83368Y107196D01*
X79652D01*
X79818Y107216D01*
X79966Y107275D01*
X80097Y107373D01*
X80211Y107511D01*
X80307Y107688D01*
X80386Y107905D01*
X80447Y108161D01*
X80491Y108456D01*
X80517Y108791D01*
X80525Y109165D01*
X82494D01*
X82503Y108791D01*
D02*
G37*
G36*
X331430Y105466D02*
X331133Y105158D01*
X330666Y104607D01*
X330496Y104363D01*
X330369Y104140D01*
X330284Y103938D01*
X330242Y103758D01*
Y103599D01*
X330284Y103461D01*
X330369Y103345D01*
X328248Y105466D01*
X328364Y105381D01*
X328502Y105339D01*
X328661D01*
X328842Y105381D01*
X329043Y105466D01*
X329266Y105593D01*
X329510Y105763D01*
X329775Y105975D01*
X330369Y106527D01*
X331430Y105466D01*
D02*
G37*
G36*
X142631Y105387D02*
X142474Y105329D01*
X142334Y105234D01*
X142214Y105100D01*
X142112Y104928D01*
X142029Y104718D01*
X141964Y104469D01*
X141917Y104183D01*
X141890Y103858D01*
X141880Y103494D01*
X139912D01*
X139902Y103858D01*
X139875Y104183D01*
X139828Y104469D01*
X139763Y104718D01*
X139680Y104928D01*
X139578Y105100D01*
X139457Y105234D01*
X139319Y105329D01*
X139161Y105387D01*
X138985Y105406D01*
X142807D01*
X142631Y105387D01*
D02*
G37*
G36*
X321929Y101750D02*
X321909Y101829D01*
X321850Y101899D01*
X321751Y101962D01*
X321614Y102016D01*
X321436Y102061D01*
X321220Y102099D01*
X320964Y102128D01*
X320334Y102161D01*
X319960Y102165D01*
Y104134D01*
X320336Y104144D01*
X320672Y104173D01*
X320969Y104222D01*
X321226Y104291D01*
X321444Y104380D01*
X321622Y104488D01*
X321761Y104616D01*
X321860Y104764D01*
X321920Y104931D01*
X321940Y105118D01*
X321929Y101750D01*
D02*
G37*
G36*
X303334Y104931D02*
X303394Y104764D01*
X303492Y104616D01*
X303630Y104488D01*
X303807Y104380D01*
X304024Y104291D01*
X304279Y104222D01*
X304575Y104173D01*
X304909Y104144D01*
X305283Y104134D01*
Y102165D01*
X304909Y102155D01*
X304575Y102126D01*
X304279Y102077D01*
X304024Y102008D01*
X303807Y101919D01*
X303630Y101811D01*
X303492Y101683D01*
X303394Y101535D01*
X303334Y101368D01*
X303315Y101181D01*
Y105118D01*
X303334Y104931D01*
D02*
G37*
G36*
X125020Y101931D02*
X125079Y101721D01*
X125177Y101536D01*
X125315Y101376D01*
X125492Y101240D01*
X125709Y101129D01*
X125965Y101043D01*
X126260Y100981D01*
X126594Y100944D01*
X126969Y100932D01*
X124016Y98963D01*
X121063Y100932D01*
X121437Y100944D01*
X121772Y100981D01*
X122067Y101043D01*
X122323Y101129D01*
X122539Y101240D01*
X122716Y101376D01*
X122854Y101536D01*
X122953Y101721D01*
X123012Y101931D01*
X123031Y102165D01*
X125000D01*
X125020Y101931D01*
D02*
G37*
G36*
X93910Y102059D02*
X93732Y101823D01*
X93622Y101614D01*
X93579Y101433D01*
X93603Y101280D01*
X93694Y101154D01*
X93853Y101057D01*
X94078Y100988D01*
X94371Y100946D01*
X94731Y100932D01*
X90387Y98963D01*
X88011Y100932D01*
X88398Y100946D01*
X88775Y100988D01*
X89140Y101057D01*
X89493Y101154D01*
X89835Y101280D01*
X90165Y101433D01*
X90484Y101614D01*
X90791Y101823D01*
X91087Y102059D01*
X91371Y102324D01*
X94155D01*
X93910Y102059D01*
D02*
G37*
G36*
X303298Y100780D02*
X303284Y100721D01*
X303271Y100622D01*
X303250Y100307D01*
X303228Y98831D01*
X301260D01*
X301173Y100799D01*
X303315D01*
X303298Y100780D01*
D02*
G37*
G36*
X83376Y101729D02*
X83436Y101562D01*
X83536Y101414D01*
X83675Y101286D01*
X83853Y101178D01*
X84071Y101089D01*
X84328Y101020D01*
X84625Y100971D01*
X84961Y100942D01*
X85336Y100932D01*
Y98963D01*
X84962Y98961D01*
X83545Y98861D01*
X83447Y98830D01*
X83388Y98795D01*
X83368Y98755D01*
X83356Y101916D01*
X83376Y101729D01*
D02*
G37*
G36*
X300789Y94279D02*
X300401Y93877D01*
X299790Y93155D01*
X299568Y92835D01*
X299401Y92543D01*
X299391Y92520D01*
X299401Y92495D01*
X299568Y92203D01*
X299791Y91884D01*
X300068Y91537D01*
X300789Y90760D01*
X299397Y89368D01*
X299120Y89633D01*
X298843Y89869D01*
X298567Y90078D01*
X298292Y90259D01*
X298019Y90412D01*
X297746Y90537D01*
X297474Y90635D01*
X297204Y90704D01*
X296934Y90746D01*
X296666Y90760D01*
X298394Y92518D01*
X296666Y94279D01*
X296934Y94293D01*
X297204Y94335D01*
X297474Y94405D01*
X297746Y94502D01*
X298019Y94627D01*
X298292Y94780D01*
X298567Y94961D01*
X298843Y95170D01*
X299120Y95407D01*
X299397Y95671D01*
X300789Y94279D01*
D02*
G37*
G36*
X301782Y85537D02*
X301811Y85200D01*
X301860Y84903D01*
X301929Y84646D01*
X302018Y84428D01*
X302126Y84250D01*
X302254Y84111D01*
X302402Y84012D01*
X302569Y83952D01*
X302756Y83933D01*
X298819D01*
X299006Y83952D01*
X299173Y84012D01*
X299321Y84111D01*
X299449Y84250D01*
X299557Y84428D01*
X299646Y84646D01*
X299715Y84903D01*
X299764Y85200D01*
X299793Y85537D01*
X299803Y85913D01*
X301772D01*
X301782Y85537D01*
D02*
G37*
G36*
X88563Y33465D02*
X34429D01*
Y88583D01*
X88563D01*
Y33465D01*
D02*
G37*
%LPC*%
G36*
X431062Y259823D02*
X430041D01*
X429054Y259559D01*
X428170Y259048D01*
X427448Y258326D01*
X426937Y257442D01*
X426673Y256455D01*
Y255434D01*
X426937Y254448D01*
X427448Y253564D01*
X428170Y252842D01*
X429054Y252331D01*
X430041Y252067D01*
X431062D01*
X432048Y252331D01*
X432932Y252842D01*
X433654Y253564D01*
X434165Y254448D01*
X434429Y255434D01*
Y256455D01*
X434165Y257442D01*
X433654Y258326D01*
X432932Y259048D01*
X432048Y259559D01*
X431062Y259823D01*
D02*
G37*
G36*
X467274Y261433D02*
X465797D01*
X464349Y261145D01*
X462985Y260580D01*
X461757Y259760D01*
X460713Y258716D01*
X459893Y257488D01*
X459327Y256123D01*
X459039Y254675D01*
Y253199D01*
X459327Y251750D01*
X459893Y250386D01*
X460713Y249159D01*
X461757Y248114D01*
X462985Y247294D01*
X464349Y246729D01*
X465797Y246441D01*
X467274D01*
X468722Y246729D01*
X470086Y247294D01*
X471314Y248114D01*
X472358Y249159D01*
X473178Y250386D01*
X473743Y251750D01*
X474031Y253199D01*
Y254675D01*
X473743Y256123D01*
X473178Y257488D01*
X472358Y258716D01*
X471314Y259760D01*
X470086Y260580D01*
X468722Y261145D01*
X467274Y261433D01*
D02*
G37*
G36*
X431062Y250803D02*
X430041D01*
X429054Y250539D01*
X428170Y250028D01*
X427448Y249306D01*
X426937Y248422D01*
X426673Y247436D01*
Y246415D01*
X426937Y245428D01*
X427448Y244544D01*
X428170Y243822D01*
X429054Y243312D01*
X430041Y243047D01*
X431062D01*
X432048Y243312D01*
X432932Y243822D01*
X433654Y244544D01*
X434165Y245428D01*
X434429Y246415D01*
Y247436D01*
X434165Y248422D01*
X433654Y249306D01*
X432932Y250028D01*
X432048Y250539D01*
X431062Y250803D01*
D02*
G37*
G36*
X300163Y246484D02*
X298892D01*
X297665Y246156D01*
X296565Y245520D01*
X295667Y244622D01*
X295031Y243522D01*
X294703Y242295D01*
Y241024D01*
X295031Y239797D01*
X295667Y238697D01*
X296565Y237799D01*
X297665Y237163D01*
X298892Y236835D01*
X300163D01*
X301390Y237163D01*
X302490Y237799D01*
X303389Y238697D01*
X304024Y239797D01*
X304353Y241024D01*
Y242295D01*
X304024Y243522D01*
X303389Y244622D01*
X302490Y245520D01*
X301390Y246156D01*
X300163Y246484D01*
D02*
G37*
G36*
X260163D02*
X258892D01*
X257665Y246156D01*
X256565Y245520D01*
X255667Y244622D01*
X255031Y243522D01*
X254703Y242295D01*
Y241024D01*
X255031Y239797D01*
X255667Y238697D01*
X256565Y237799D01*
X257665Y237163D01*
X258892Y236835D01*
X260163D01*
X261390Y237163D01*
X262490Y237799D01*
X263388Y238697D01*
X264024Y239797D01*
X264353Y241024D01*
Y242295D01*
X264024Y243522D01*
X263388Y244622D01*
X262490Y245520D01*
X261390Y246156D01*
X260163Y246484D01*
D02*
G37*
G36*
X431062Y214819D02*
X430041D01*
X429054Y214555D01*
X428170Y214044D01*
X427448Y213322D01*
X426937Y212438D01*
X426673Y211452D01*
Y210430D01*
X426937Y209444D01*
X427448Y208560D01*
X428170Y207838D01*
X429054Y207327D01*
X430041Y207063D01*
X431062D01*
X432048Y207327D01*
X432932Y207838D01*
X433654Y208560D01*
X434165Y209444D01*
X434429Y210430D01*
Y211452D01*
X434165Y212438D01*
X433654Y213322D01*
X432932Y214044D01*
X432048Y214555D01*
X431062Y214819D01*
D02*
G37*
G36*
Y205803D02*
X430041D01*
X429054Y205539D01*
X428170Y205028D01*
X427448Y204306D01*
X426937Y203422D01*
X426673Y202436D01*
Y201415D01*
X426937Y200428D01*
X427448Y199544D01*
X428170Y198822D01*
X429054Y198311D01*
X430041Y198047D01*
X431062D01*
X432048Y198311D01*
X432932Y198822D01*
X433654Y199544D01*
X434165Y200428D01*
X434429Y201415D01*
Y202436D01*
X434165Y203422D01*
X433654Y204306D01*
X432932Y205028D01*
X432048Y205539D01*
X431062Y205803D01*
D02*
G37*
G36*
X300163Y206485D02*
X298892D01*
X297665Y206156D01*
X296565Y205521D01*
X295667Y204622D01*
X295031Y203522D01*
X294703Y202295D01*
Y201024D01*
X295031Y199797D01*
X295667Y198697D01*
X296565Y197799D01*
X297665Y197163D01*
X298892Y196835D01*
X300163D01*
X301390Y197163D01*
X302490Y197799D01*
X303389Y198697D01*
X304024Y199797D01*
X304353Y201024D01*
Y202295D01*
X304024Y203522D01*
X303389Y204622D01*
X302490Y205521D01*
X301390Y206156D01*
X300163Y206485D01*
D02*
G37*
G36*
X260163D02*
X258892D01*
X257665Y206156D01*
X256565Y205521D01*
X255667Y204622D01*
X255031Y203522D01*
X254703Y202295D01*
Y201024D01*
X255031Y199797D01*
X255667Y198697D01*
X256565Y197799D01*
X257665Y197163D01*
X258892Y196835D01*
X260163D01*
X261390Y197163D01*
X262490Y197799D01*
X263388Y198697D01*
X264024Y199797D01*
X264353Y201024D01*
Y202295D01*
X264024Y203522D01*
X263388Y204622D01*
X262490Y205521D01*
X261390Y206156D01*
X260163Y206485D01*
D02*
G37*
G36*
X467274Y211433D02*
X465797D01*
X464349Y211145D01*
X462985Y210580D01*
X461757Y209760D01*
X460713Y208716D01*
X459893Y207488D01*
X459327Y206123D01*
X459039Y204675D01*
Y203199D01*
X459327Y201750D01*
X459893Y200386D01*
X460713Y199159D01*
X461757Y198114D01*
X462985Y197294D01*
X464349Y196729D01*
X465797Y196441D01*
X467274D01*
X468722Y196729D01*
X470086Y197294D01*
X471314Y198114D01*
X472358Y199159D01*
X473178Y200386D01*
X473743Y201750D01*
X474031Y203199D01*
Y204675D01*
X473743Y206123D01*
X473178Y207488D01*
X472358Y208716D01*
X471314Y209760D01*
X470086Y210580D01*
X468722Y211145D01*
X467274Y211433D01*
D02*
G37*
G36*
X185039Y274642D02*
X184649Y274564D01*
X184318Y274343D01*
X180381Y270406D01*
X180160Y270075D01*
X180083Y269685D01*
Y265748D01*
X180160Y265358D01*
X180381Y265027D01*
X182350Y263059D01*
X182681Y262838D01*
X183071Y262760D01*
X300759Y262760D01*
X313941Y249578D01*
Y237024D01*
X313370D01*
Y231480D01*
X313941D01*
Y221276D01*
X313370D01*
Y215732D01*
X313941D01*
Y205528D01*
X313370D01*
Y199984D01*
X313941D01*
Y196850D01*
X314019Y196460D01*
X314240Y196129D01*
X320145Y190224D01*
X320476Y190003D01*
X320866Y189925D01*
X372047Y189925D01*
X372437Y190003D01*
X372768Y190224D01*
X376705Y194161D01*
X376926Y194492D01*
X377004Y194882D01*
Y244094D01*
X376926Y244485D01*
X376705Y244815D01*
X347178Y274343D01*
X346847Y274564D01*
X346457Y274642D01*
X185039Y274642D01*
D02*
G37*
G36*
X451935Y133175D02*
X443026D01*
Y124266D01*
X451935D01*
Y133175D01*
D02*
G37*
G36*
X459248Y127722D02*
X458075D01*
X456942Y127419D01*
X455926Y126832D01*
X455097Y126003D01*
X454510Y124987D01*
X454207Y123854D01*
Y122681D01*
X454510Y121548D01*
X455097Y120532D01*
X455926Y119703D01*
X456942Y119117D01*
X458075Y118813D01*
X459248D01*
X460381Y119117D01*
X461397Y119703D01*
X462226Y120532D01*
X462813Y121548D01*
X463116Y122681D01*
Y123854D01*
X462813Y124987D01*
X462226Y126003D01*
X461397Y126832D01*
X460381Y127419D01*
X459248Y127722D01*
D02*
G37*
G36*
X448067Y122270D02*
X446894D01*
X445761Y121966D01*
X444745Y121380D01*
X443916Y120550D01*
X443329Y119534D01*
X443026Y118401D01*
Y117228D01*
X443329Y116095D01*
X443916Y115080D01*
X444745Y114250D01*
X445761Y113664D01*
X446894Y113360D01*
X448067D01*
X449200Y113664D01*
X450216Y114250D01*
X451045Y115080D01*
X451631Y116095D01*
X451935Y117228D01*
Y118401D01*
X451631Y119534D01*
X451045Y120550D01*
X450216Y121380D01*
X449200Y121966D01*
X448067Y122270D01*
D02*
G37*
G36*
X459248Y116817D02*
X458075D01*
X456942Y116513D01*
X455926Y115927D01*
X455097Y115097D01*
X454510Y114082D01*
X454207Y112949D01*
Y111776D01*
X454510Y110643D01*
X455097Y109627D01*
X455926Y108798D01*
X456942Y108211D01*
X458075Y107907D01*
X459248D01*
X460381Y108211D01*
X461397Y108798D01*
X462226Y109627D01*
X462813Y110643D01*
X463116Y111776D01*
Y112949D01*
X462813Y114082D01*
X462226Y115097D01*
X461397Y115927D01*
X460381Y116513D01*
X459248Y116817D01*
D02*
G37*
G36*
X448067Y111364D02*
X446894D01*
X445761Y111061D01*
X444745Y110474D01*
X443916Y109645D01*
X443329Y108629D01*
X443026Y107496D01*
Y106323D01*
X443329Y105190D01*
X443916Y104174D01*
X444745Y103345D01*
X445761Y102758D01*
X446894Y102455D01*
X448067D01*
X449200Y102758D01*
X450216Y103345D01*
X451045Y104174D01*
X451631Y105190D01*
X451935Y106323D01*
Y107496D01*
X451631Y108629D01*
X451045Y109645D01*
X450216Y110474D01*
X449200Y111061D01*
X448067Y111364D01*
D02*
G37*
G36*
X459248Y105911D02*
X458075D01*
X456942Y105608D01*
X455926Y105021D01*
X455097Y104192D01*
X454510Y103176D01*
X454207Y102043D01*
Y100870D01*
X454510Y99737D01*
X455097Y98721D01*
X455926Y97892D01*
X456942Y97306D01*
X458075Y97002D01*
X459248D01*
X460381Y97306D01*
X461397Y97892D01*
X462226Y98721D01*
X462813Y99737D01*
X463116Y100870D01*
Y102043D01*
X462813Y103176D01*
X462226Y104192D01*
X461397Y105021D01*
X460381Y105608D01*
X459248Y105911D01*
D02*
G37*
G36*
X448067Y100455D02*
X446894D01*
X445761Y100151D01*
X444745Y99565D01*
X443916Y98735D01*
X443329Y97720D01*
X443026Y96587D01*
Y95414D01*
X443329Y94280D01*
X443916Y93265D01*
X444745Y92435D01*
X445761Y91849D01*
X446894Y91545D01*
X448067D01*
X449200Y91849D01*
X450216Y92435D01*
X451045Y93265D01*
X451631Y94280D01*
X451935Y95414D01*
Y96587D01*
X451631Y97720D01*
X451045Y98735D01*
X450216Y99565D01*
X449200Y100151D01*
X448067Y100455D01*
D02*
G37*
G36*
X459248Y95006D02*
X458075D01*
X456942Y94702D01*
X455926Y94116D01*
X455097Y93286D01*
X454510Y92271D01*
X454207Y91138D01*
Y89965D01*
X454510Y88832D01*
X455097Y87816D01*
X455926Y86987D01*
X456942Y86400D01*
X458075Y86097D01*
X459248D01*
X460381Y86400D01*
X461397Y86987D01*
X462226Y87816D01*
X462813Y88832D01*
X463116Y89965D01*
Y91138D01*
X462813Y92271D01*
X462226Y93286D01*
X461397Y94116D01*
X460381Y94702D01*
X459248Y95006D01*
D02*
G37*
G36*
X448067Y89549D02*
X446894D01*
X445761Y89246D01*
X444745Y88659D01*
X443916Y87830D01*
X443329Y86814D01*
X443026Y85681D01*
Y84508D01*
X443329Y83375D01*
X443916Y82359D01*
X444745Y81530D01*
X445761Y80943D01*
X446894Y80640D01*
X448067D01*
X449200Y80943D01*
X450216Y81530D01*
X451045Y82359D01*
X451631Y83375D01*
X451935Y84508D01*
Y85681D01*
X451631Y86814D01*
X451045Y87830D01*
X450216Y88659D01*
X449200Y89246D01*
X448067Y89549D01*
D02*
G37*
G36*
X353132Y75136D02*
X352742Y75058D01*
X352411Y74837D01*
X340600Y63026D01*
X340379Y62695D01*
X340301Y62305D01*
Y36715D01*
X340379Y36325D01*
X340600Y35994D01*
X350442Y26151D01*
X350773Y25930D01*
X351163Y25853D01*
X380691D01*
X381081Y25930D01*
X381412Y26151D01*
X389286Y34025D01*
X389507Y34356D01*
X389584Y34746D01*
Y66242D01*
X389507Y66632D01*
X389286Y66963D01*
X381412Y74837D01*
X381081Y75058D01*
X380691Y75136D01*
X353132Y75136D01*
D02*
G37*
%LPD*%
G36*
X346457Y273622D02*
X375984Y244094D01*
Y194882D01*
X372047Y190945D01*
X320866Y190945D01*
X314961Y196850D01*
Y250000D01*
X301181Y263779D01*
X183071Y263779D01*
X181102Y265748D01*
Y269685D01*
X185039Y273622D01*
X346457Y273622D01*
D02*
G37*
%LPC*%
G36*
X371029Y246484D02*
X369759D01*
X368531Y246156D01*
X367431Y245520D01*
X366533Y244622D01*
X365897Y243522D01*
X365569Y242295D01*
Y241024D01*
X365897Y239797D01*
X366533Y238697D01*
X367431Y237799D01*
X368531Y237163D01*
X369759Y236835D01*
X371029D01*
X372256Y237163D01*
X373356Y237799D01*
X374255Y238697D01*
X374890Y239797D01*
X375219Y241024D01*
Y242295D01*
X374890Y243522D01*
X374255Y244622D01*
X373356Y245520D01*
X372256Y246156D01*
X371029Y246484D01*
D02*
G37*
G36*
X331029D02*
X329759D01*
X328531Y246156D01*
X327431Y245520D01*
X326533Y244622D01*
X325898Y243522D01*
X325569Y242295D01*
Y241024D01*
X325898Y239797D01*
X326533Y238697D01*
X327431Y237799D01*
X328531Y237163D01*
X329759Y236835D01*
X331029D01*
X332256Y237163D01*
X333356Y237799D01*
X334255Y238697D01*
X334890Y239797D01*
X335219Y241024D01*
Y242295D01*
X334890Y243522D01*
X334255Y244622D01*
X333356Y245520D01*
X332256Y246156D01*
X331029Y246484D01*
D02*
G37*
G36*
X371029Y206485D02*
X369759D01*
X368531Y206156D01*
X367431Y205521D01*
X366533Y204622D01*
X365897Y203522D01*
X365569Y202295D01*
Y201024D01*
X365897Y199797D01*
X366533Y198697D01*
X367431Y197799D01*
X368531Y197163D01*
X369759Y196835D01*
X371029D01*
X372256Y197163D01*
X373356Y197799D01*
X374255Y198697D01*
X374890Y199797D01*
X375219Y201024D01*
Y202295D01*
X374890Y203522D01*
X374255Y204622D01*
X373356Y205521D01*
X372256Y206156D01*
X371029Y206485D01*
D02*
G37*
G36*
X331029D02*
X329759D01*
X328531Y206156D01*
X327431Y205521D01*
X326533Y204622D01*
X325898Y203522D01*
X325569Y202295D01*
Y201024D01*
X325898Y199797D01*
X326533Y198697D01*
X327431Y197799D01*
X328531Y197163D01*
X329759Y196835D01*
X331029D01*
X332256Y197163D01*
X333356Y197799D01*
X334255Y198697D01*
X334890Y199797D01*
X335219Y201024D01*
Y202295D01*
X334890Y203522D01*
X334255Y204622D01*
X333356Y205521D01*
X332256Y206156D01*
X331029Y206485D01*
D02*
G37*
%LPD*%
G36*
X380691Y74116D02*
X388565Y66242D01*
Y34746D01*
X380691Y26872D01*
X351163D01*
X341321Y36715D01*
Y62305D01*
X353132Y74116D01*
X380691Y74116D01*
D02*
G37*
%LPC*%
G36*
X364951Y54965D02*
X363872D01*
X362829Y54685D01*
X361894Y54145D01*
X361130Y53382D01*
X360590Y52447D01*
X360311Y51404D01*
Y50325D01*
X360590Y49282D01*
X361130Y48347D01*
X361894Y47583D01*
X362829Y47043D01*
X363872Y46764D01*
X364951D01*
X365994Y47043D01*
X366929Y47583D01*
X367692Y48347D01*
X368232Y49282D01*
X368512Y50325D01*
Y51404D01*
X368232Y52447D01*
X367692Y53382D01*
X366929Y54145D01*
X365994Y54685D01*
X364951Y54965D01*
D02*
G37*
G36*
X236221Y233169D02*
X234932Y232999D01*
X233731Y232502D01*
X232699Y231710D01*
X231908Y230679D01*
X231411Y229478D01*
X231241Y228189D01*
X231411Y226900D01*
X231908Y225699D01*
X232699Y224668D01*
X233731Y223877D01*
X234737Y223460D01*
Y222918D01*
X233731Y222501D01*
X232699Y221710D01*
X231908Y220679D01*
X231411Y219478D01*
X231241Y218189D01*
X231411Y216900D01*
X231908Y215699D01*
X232699Y214668D01*
X232829Y214568D01*
X233052Y214339D01*
X233316Y214038D01*
X233543Y213746D01*
X233734Y213464D01*
X233890Y213194D01*
X234013Y212936D01*
X234104Y212690D01*
X234167Y212456D01*
X234197Y212269D01*
Y196203D01*
X234185Y196059D01*
X234150Y195850D01*
X234110Y195702D01*
X234103Y195685D01*
X232661D01*
Y190142D01*
X234103D01*
X234110Y190125D01*
X234150Y189977D01*
X234185Y189768D01*
X234197Y189623D01*
Y188330D01*
X234185Y188185D01*
X234150Y187976D01*
X234110Y187828D01*
X234103Y187811D01*
X232661D01*
Y182268D01*
X234103D01*
X234110Y182251D01*
X234150Y182103D01*
X234185Y181894D01*
X234197Y181749D01*
Y180456D01*
X234185Y180311D01*
X234150Y180102D01*
X234110Y179954D01*
X234103Y179937D01*
X232661D01*
Y174394D01*
X234103D01*
X234110Y174377D01*
X234150Y174229D01*
X234185Y174020D01*
X234197Y173875D01*
Y164898D01*
X234194Y164865D01*
X234168Y164712D01*
X234134Y164572D01*
X234091Y164444D01*
X234041Y164328D01*
X233983Y164220D01*
X233917Y164119D01*
X233842Y164023D01*
X233778Y163955D01*
X233724Y163914D01*
X233683Y163860D01*
X233615Y163796D01*
X233519Y163721D01*
X233418Y163655D01*
X233310Y163597D01*
X233193Y163547D01*
X233066Y163504D01*
X232926Y163470D01*
X232773Y163444D01*
X232740Y163440D01*
X222190D01*
X221415Y163286D01*
X220759Y162848D01*
X204491Y146580D01*
X204052Y145923D01*
X204002Y145669D01*
X203150D01*
Y141176D01*
X203142Y141138D01*
X203150Y141100D01*
Y140126D01*
X203821D01*
X203843Y140020D01*
X203882Y139615D01*
Y136272D01*
X203876Y136174D01*
X203847Y135948D01*
X203821Y135827D01*
X203150D01*
Y134853D01*
X203142Y134815D01*
X203150Y134777D01*
Y131334D01*
X203142Y131296D01*
X203150Y131257D01*
Y130283D01*
X203821D01*
X203843Y130178D01*
X203882Y129773D01*
Y124470D01*
X203870Y124324D01*
X203835Y124115D01*
X203795Y123967D01*
X203790Y123953D01*
X200673D01*
Y119453D01*
X200673Y119394D01*
Y118953D01*
X200673Y118894D01*
Y114453D01*
X200673Y114394D01*
Y113953D01*
X200673Y113894D01*
Y109394D01*
X208907D01*
X208945Y109386D01*
X208966Y109390D01*
X208987Y109387D01*
X209015Y109394D01*
X209957D01*
Y109629D01*
X210304Y109650D01*
X211229D01*
X219947Y100932D01*
X220604Y100493D01*
X221378Y100339D01*
X224861D01*
X225006Y100326D01*
X225216Y100292D01*
X225364Y100252D01*
X225378Y100246D01*
Y98114D01*
X232102D01*
Y106610D01*
X225378D01*
Y104478D01*
X225364Y104472D01*
X225216Y104433D01*
X225006Y104398D01*
X224861Y104385D01*
X222216D01*
X213497Y113104D01*
X212841Y113542D01*
X212067Y113696D01*
X210453D01*
X210231Y113785D01*
X209991Y113932D01*
Y114415D01*
X210375Y114650D01*
X212067D01*
X212841Y114804D01*
X213497Y115243D01*
X220247Y121993D01*
X224861D01*
X225006Y121980D01*
X225216Y121945D01*
X225364Y121906D01*
X225378Y121900D01*
Y119768D01*
X232102D01*
Y128264D01*
X225378D01*
Y126132D01*
X225364Y126126D01*
X225216Y126086D01*
X225006Y126052D01*
X224861Y126039D01*
X219409D01*
X218635Y125885D01*
X217979Y125446D01*
X211229Y118696D01*
X210453D01*
X210231Y118785D01*
X209957Y118953D01*
Y119394D01*
X209957Y119453D01*
Y123953D01*
X208069D01*
X208017Y123963D01*
X208016Y123967D01*
X207976Y124115D01*
X207941Y124324D01*
X207929Y124470D01*
Y142898D01*
X207906Y143014D01*
Y143096D01*
X207944Y143291D01*
Y144311D01*
X223028Y159394D01*
X232740D01*
X232773Y159391D01*
X232926Y159365D01*
X233066Y159331D01*
X233193Y159288D01*
X233310Y159238D01*
X233418Y159180D01*
X233519Y159114D01*
X233615Y159039D01*
X233683Y158975D01*
X233724Y158921D01*
X234455Y158360D01*
X235307Y158007D01*
X236221Y157887D01*
X237134Y158007D01*
X237986Y158360D01*
X238717Y158921D01*
X239278Y159652D01*
X239630Y160504D01*
X239751Y161417D01*
X239630Y162331D01*
X239278Y163182D01*
X238717Y163914D01*
X238663Y163955D01*
X238599Y164023D01*
X238524Y164119D01*
X238458Y164220D01*
X238400Y164328D01*
X238350Y164444D01*
X238307Y164572D01*
X238273Y164712D01*
X238247Y164865D01*
X238244Y164898D01*
Y212269D01*
X238274Y212456D01*
X238336Y212690D01*
X238428Y212936D01*
X238551Y213194D01*
X238707Y213464D01*
X238890Y213733D01*
X239399Y214350D01*
X239612Y214568D01*
X239742Y214668D01*
X240533Y215699D01*
X241030Y216900D01*
X241200Y218189D01*
X241030Y219478D01*
X240533Y220679D01*
X239742Y221710D01*
X238710Y222501D01*
X237704Y222918D01*
Y223460D01*
X238710Y223877D01*
X239742Y224668D01*
X240533Y225699D01*
X241030Y226900D01*
X241200Y228189D01*
X241030Y229478D01*
X240533Y230679D01*
X239742Y231710D01*
X238710Y232502D01*
X237509Y232999D01*
X236221Y233169D01*
D02*
G37*
G36*
X293126Y151886D02*
X286402D01*
Y143390D01*
X287648D01*
X287654Y143376D01*
X287693Y143228D01*
X287728Y143018D01*
X287741Y142873D01*
Y140945D01*
X287895Y140171D01*
X288333Y139514D01*
X289386Y138462D01*
X289713Y138110D01*
X289947Y137818D01*
X289963Y137795D01*
X289955Y137785D01*
X289475Y137218D01*
X285813Y133556D01*
X285375Y132900D01*
X285221Y132126D01*
Y128953D01*
X285161D01*
Y127979D01*
X285154Y127941D01*
X285161Y127903D01*
Y127882D01*
X285158Y127849D01*
X285161Y127837D01*
Y126438D01*
X285147Y126432D01*
X284999Y126393D01*
X284790Y126358D01*
X284644Y126345D01*
X253937Y126345D01*
X243646D01*
X243503Y126358D01*
X243295Y126392D01*
X243149Y126432D01*
X243126Y126441D01*
Y128264D01*
X236402D01*
Y119768D01*
X243126D01*
Y122203D01*
X243149Y122212D01*
X243295Y122252D01*
X243503Y122286D01*
X243646Y122299D01*
X251165D01*
Y119276D01*
X256709D01*
Y122299D01*
X284644Y122299D01*
X284790Y122286D01*
X284999Y122251D01*
X285147Y122212D01*
X285161Y122206D01*
Y119079D01*
X289327D01*
Y127903D01*
X289334Y127941D01*
X289330Y127963D01*
X289333Y127986D01*
X289327Y128136D01*
Y128953D01*
X289291D01*
X289267Y129492D01*
Y131288D01*
X292220Y134241D01*
X292348Y134350D01*
X292573Y134520D01*
X292789Y134663D01*
X292995Y134778D01*
X293191Y134868D01*
X293377Y134935D01*
X293553Y134980D01*
X293722Y135006D01*
X293938Y135017D01*
X293963Y135024D01*
X294898D01*
Y135988D01*
X294905Y136024D01*
X294899Y136056D01*
X294904Y136088D01*
X294898Y136113D01*
Y139478D01*
X294904Y139502D01*
X294899Y139534D01*
X294905Y139566D01*
X294898Y139602D01*
Y140567D01*
X293963D01*
X293938Y140573D01*
X293722Y140584D01*
X293553Y140611D01*
X293377Y140656D01*
X293191Y140723D01*
X292995Y140813D01*
X292789Y140928D01*
X292573Y141070D01*
X292348Y141241D01*
X292220Y141350D01*
X291787Y141783D01*
Y142873D01*
X291800Y143018D01*
X291834Y143228D01*
X291874Y143376D01*
X291880Y143390D01*
X293126D01*
Y151886D01*
D02*
G37*
G36*
X294327Y128953D02*
X290161D01*
Y120129D01*
X290154Y120091D01*
X290161Y120053D01*
Y119079D01*
X290254D01*
X290271Y118782D01*
Y117154D01*
X290349Y116762D01*
X289889Y116516D01*
X289788Y116616D01*
X289132Y117055D01*
X288357Y117209D01*
X278195D01*
X278093Y117216D01*
X277868Y117246D01*
X277743Y117272D01*
Y117957D01*
X276769D01*
X276731Y117965D01*
X276693Y117957D01*
X272987D01*
Y112414D01*
X276693D01*
X276731Y112407D01*
X276769Y112414D01*
X277743D01*
Y113100D01*
X277852Y113123D01*
X278259Y113163D01*
X287520D01*
X290271Y110411D01*
Y109661D01*
X290161D01*
Y108688D01*
X290154Y108649D01*
X290161Y108611D01*
Y99787D01*
X294327D01*
Y108611D01*
X294334Y108649D01*
X294333Y108659D01*
X294334Y108668D01*
X294327Y109073D01*
Y109661D01*
X294318D01*
Y111249D01*
X294240Y111641D01*
X294700Y111887D01*
X295271Y111316D01*
Y109661D01*
X295161D01*
Y108688D01*
X295154Y108649D01*
X295161Y108611D01*
Y99787D01*
X299327D01*
Y108611D01*
X299334Y108649D01*
X299332Y108659D01*
X299334Y108668D01*
X299327Y109073D01*
Y109661D01*
X299318D01*
Y110182D01*
X316591D01*
X317206Y110059D01*
X317588D01*
Y109311D01*
X322081D01*
X322119Y109303D01*
X322157Y109311D01*
X323131D01*
Y109996D01*
X323240Y110019D01*
X323647Y110059D01*
X324823D01*
X325597Y110213D01*
X326157Y110588D01*
X326502Y110445D01*
X327416Y110325D01*
X328329Y110445D01*
X329181Y110798D01*
X329912Y111359D01*
X330473Y112090D01*
X330826Y112941D01*
X330946Y113855D01*
X330826Y114769D01*
X330473Y115620D01*
X329912Y116351D01*
X329181Y116912D01*
X328329Y117265D01*
X327416Y117385D01*
X326502Y117265D01*
X325651Y116912D01*
X324919Y116351D01*
X324358Y115620D01*
X324006Y114769D01*
X323918Y114105D01*
X320753D01*
X320558Y114067D01*
X320161D01*
X319966Y114105D01*
X317700D01*
X317084Y114228D01*
X298082D01*
X294318Y117992D01*
Y119079D01*
X294327D01*
Y120053D01*
X294334Y120091D01*
X294328Y120120D01*
X294333Y120150D01*
X294327Y120172D01*
Y128953D01*
D02*
G37*
G36*
X289327Y109661D02*
X285161D01*
Y104785D01*
X285146Y104779D01*
X284998Y104739D01*
X284789Y104704D01*
X284643Y104692D01*
X256709Y104692D01*
Y107890D01*
X251165D01*
Y104692D01*
X243646D01*
X243503Y104704D01*
X243295Y104739D01*
X243149Y104778D01*
X243126Y104788D01*
Y106610D01*
X236402D01*
Y98114D01*
X243126D01*
Y100549D01*
X243149Y100559D01*
X243295Y100598D01*
X243503Y100633D01*
X243646Y100645D01*
X253688D01*
X253937Y100596D01*
X254186Y100645D01*
X284670Y100645D01*
X284798Y100635D01*
X285013Y100603D01*
X285161Y100567D01*
Y99787D01*
X285197D01*
X285221Y99247D01*
Y97835D01*
X285375Y97060D01*
X285813Y96404D01*
X288929Y93289D01*
X289600Y92526D01*
X289799Y92266D01*
X289317Y91785D01*
X289317Y91785D01*
X288333Y90801D01*
X287895Y90144D01*
X287741Y89370D01*
Y85474D01*
X287728Y85328D01*
X287693Y85119D01*
X287654Y84971D01*
X287648Y84957D01*
X286402D01*
Y76461D01*
X293126D01*
Y84957D01*
X291880D01*
X291874Y84971D01*
X291834Y85119D01*
X291800Y85328D01*
X291787Y85474D01*
Y88532D01*
X292179Y88924D01*
X292179Y88924D01*
X293003Y89748D01*
X294898D01*
Y95291D01*
X292796D01*
X292592Y95435D01*
X292003Y95937D01*
X289267Y98673D01*
Y99787D01*
X289327D01*
Y100761D01*
X289334Y100799D01*
X289327Y100838D01*
Y100858D01*
X289330Y100891D01*
X289327Y100903D01*
Y109661D01*
D02*
G37*
%LPD*%
G36*
X238640Y215031D02*
X238073Y214345D01*
X237842Y214006D01*
X237648Y213668D01*
X237488Y213333D01*
X237364Y213000D01*
X237276Y212670D01*
X237222Y212341D01*
X237205Y212015D01*
X235236D01*
X235219Y212341D01*
X235165Y212670D01*
X235077Y213000D01*
X234953Y213333D01*
X234793Y213668D01*
X234598Y214006D01*
X234368Y214345D01*
X234102Y214687D01*
X233801Y215031D01*
X233465Y215377D01*
X238976D01*
X238640Y215031D01*
D02*
G37*
G36*
X236405Y194673D02*
X234252Y194661D01*
X234439Y194682D01*
X234606Y194742D01*
X234754Y194842D01*
X234882Y194981D01*
X234990Y195159D01*
X235079Y195377D01*
X235148Y195634D01*
X235197Y195930D01*
X235226Y196266D01*
X235236Y196642D01*
X237205D01*
X236405Y194673D01*
D02*
G37*
G36*
Y191154D02*
X236557Y191134D01*
X236693Y191075D01*
X236813Y190977D01*
X236917Y190839D01*
X237005Y190662D01*
X237077Y190445D01*
X237133Y190189D01*
X237173Y189894D01*
X237197Y189559D01*
X237205Y189185D01*
X235236D01*
X235226Y189560D01*
X235197Y189897D01*
X235148Y190193D01*
X235079Y190450D01*
X234990Y190668D01*
X234882Y190846D01*
X234754Y190985D01*
X234606Y191085D01*
X234439Y191145D01*
X234252Y191166D01*
X236405Y191154D01*
D02*
G37*
G36*
Y186799D02*
X234252Y186787D01*
X234439Y186808D01*
X234606Y186868D01*
X234754Y186968D01*
X234882Y187107D01*
X234990Y187285D01*
X235079Y187503D01*
X235148Y187760D01*
X235197Y188056D01*
X235226Y188392D01*
X235236Y188768D01*
X237205D01*
X236405Y186799D01*
D02*
G37*
G36*
Y183280D02*
X236557Y183260D01*
X236693Y183201D01*
X236813Y183103D01*
X236917Y182965D01*
X237005Y182788D01*
X237077Y182571D01*
X237133Y182315D01*
X237173Y182020D01*
X237197Y181685D01*
X237205Y181311D01*
X235236D01*
X235226Y181686D01*
X235197Y182022D01*
X235148Y182319D01*
X235079Y182576D01*
X234990Y182794D01*
X234882Y182972D01*
X234754Y183111D01*
X234606Y183211D01*
X234439Y183271D01*
X234252Y183292D01*
X236405Y183280D01*
D02*
G37*
G36*
Y178925D02*
X234252Y178913D01*
X234439Y178934D01*
X234606Y178994D01*
X234754Y179094D01*
X234882Y179233D01*
X234990Y179411D01*
X235079Y179629D01*
X235148Y179886D01*
X235197Y180182D01*
X235226Y180518D01*
X235236Y180894D01*
X237205D01*
X236405Y178925D01*
D02*
G37*
G36*
Y175406D02*
X236557Y175386D01*
X236693Y175327D01*
X236813Y175229D01*
X236917Y175091D01*
X237005Y174914D01*
X237077Y174697D01*
X237133Y174441D01*
X237173Y174146D01*
X237197Y173811D01*
X237205Y173437D01*
X235236D01*
X235226Y173812D01*
X235197Y174148D01*
X235148Y174445D01*
X235079Y174702D01*
X234990Y174920D01*
X234882Y175098D01*
X234754Y175237D01*
X234606Y175337D01*
X234439Y175397D01*
X234252Y175418D01*
X236405Y175406D01*
D02*
G37*
G36*
X237212Y164968D02*
X237235Y164731D01*
X237274Y164504D01*
X237327Y164287D01*
X237396Y164081D01*
X237480Y163885D01*
X237580Y163699D01*
X237695Y163523D01*
X237825Y163358D01*
X237970Y163203D01*
X234471D01*
X234616Y163358D01*
X234746Y163523D01*
X234861Y163699D01*
X234961Y163885D01*
X235045Y164081D01*
X235114Y164287D01*
X235167Y164504D01*
X235206Y164731D01*
X235229Y164968D01*
X235236Y165215D01*
X237205D01*
X237212Y164968D01*
D02*
G37*
G36*
X234435Y159667D02*
X234280Y159813D01*
X234114Y159943D01*
X233939Y160058D01*
X233753Y160157D01*
X233557Y160242D01*
X233350Y160310D01*
X233134Y160364D01*
X232907Y160402D01*
X232670Y160425D01*
X232422Y160433D01*
Y162402D01*
X232670Y162409D01*
X232907Y162432D01*
X233134Y162470D01*
X233350Y162524D01*
X233557Y162593D01*
X233753Y162677D01*
X233939Y162777D01*
X234114Y162892D01*
X234280Y163022D01*
X234435Y163167D01*
Y159667D01*
D02*
G37*
G36*
X206890Y139170D02*
X204921D01*
X204914Y139543D01*
X204853Y140173D01*
X204800Y140429D01*
X204731Y140646D01*
X204648Y140823D01*
X204549Y140961D01*
X204435Y141059D01*
X204306Y141118D01*
X204162Y141138D01*
X206893D01*
X206890Y139170D01*
D02*
G37*
G36*
X206893Y134815D02*
X204162D01*
X204306Y134834D01*
X204435Y134894D01*
X204549Y134992D01*
X204648Y135130D01*
X204731Y135307D01*
X204800Y135523D01*
X204853Y135779D01*
X204891Y136075D01*
X204914Y136409D01*
X204921Y136783D01*
X206890D01*
X206893Y134815D01*
D02*
G37*
G36*
X206890Y129327D02*
X204921D01*
X204914Y129701D01*
X204853Y130331D01*
X204800Y130587D01*
X204731Y130803D01*
X204648Y130981D01*
X204549Y131118D01*
X204435Y131217D01*
X204306Y131276D01*
X204162Y131296D01*
X206893D01*
X206890Y129327D01*
D02*
G37*
G36*
X206900Y124533D02*
X206929Y124196D01*
X206978Y123899D01*
X207047Y123642D01*
X207136Y123424D01*
X207244Y123246D01*
X207372Y123107D01*
X207520Y123008D01*
X207687Y122949D01*
X207874Y122929D01*
X203937D01*
X204124Y122949D01*
X204291Y123008D01*
X204439Y123107D01*
X204567Y123246D01*
X204675Y123424D01*
X204764Y123642D01*
X204833Y123899D01*
X204882Y124196D01*
X204911Y124533D01*
X204921Y124909D01*
X206890D01*
X206900Y124533D01*
D02*
G37*
G36*
X226402Y122047D02*
X226382Y122234D01*
X226323Y122402D01*
X226224Y122549D01*
X226085Y122677D01*
X225907Y122785D01*
X225689Y122874D01*
X225431Y122943D01*
X225134Y122992D01*
X224798Y123022D01*
X224422Y123031D01*
Y125000D01*
X224798Y125010D01*
X225134Y125039D01*
X225431Y125089D01*
X225689Y125157D01*
X225907Y125246D01*
X226085Y125354D01*
X226224Y125482D01*
X226323Y125630D01*
X226382Y125797D01*
X226402Y125984D01*
Y122047D01*
D02*
G37*
G36*
X208964Y117887D02*
X209023Y117839D01*
X209122Y117796D01*
X209260Y117760D01*
X209437Y117728D01*
X209653Y117703D01*
X210205Y117669D01*
X210913Y117657D01*
Y115689D01*
X210539Y115686D01*
X209437Y115618D01*
X209260Y115587D01*
X209122Y115550D01*
X209023Y115508D01*
X208964Y115460D01*
X208945Y115406D01*
Y117941D01*
X208964Y117887D01*
D02*
G37*
G36*
Y112887D02*
X209023Y112839D01*
X209122Y112796D01*
X209260Y112759D01*
X209437Y112728D01*
X209653Y112703D01*
X210205Y112669D01*
X210913Y112657D01*
Y110689D01*
X210539Y110686D01*
X209437Y110618D01*
X209260Y110587D01*
X209122Y110550D01*
X209023Y110508D01*
X208964Y110459D01*
X208945Y110406D01*
Y112941D01*
X208964Y112887D01*
D02*
G37*
G36*
X226402Y100394D02*
X226382Y100581D01*
X226323Y100748D01*
X226224Y100896D01*
X226085Y101024D01*
X225907Y101132D01*
X225689Y101221D01*
X225431Y101289D01*
X225134Y101339D01*
X224798Y101368D01*
X224422Y101378D01*
Y103347D01*
X224798Y103356D01*
X225134Y103386D01*
X225431Y103435D01*
X225689Y103504D01*
X225907Y103593D01*
X226085Y103701D01*
X226224Y103829D01*
X226323Y103976D01*
X226382Y104144D01*
X226402Y104331D01*
Y100394D01*
D02*
G37*
G36*
X291545Y144394D02*
X291378Y144334D01*
X291230Y144236D01*
X291102Y144097D01*
X290994Y143919D01*
X290905Y143701D01*
X290837Y143443D01*
X290787Y143146D01*
X290758Y142810D01*
X290748Y142433D01*
X288779D01*
X288770Y142810D01*
X288740Y143146D01*
X288691Y143443D01*
X288622Y143701D01*
X288533Y143919D01*
X288425Y144097D01*
X288297Y144236D01*
X288150Y144334D01*
X287982Y144394D01*
X287795Y144414D01*
X291732D01*
X291545Y144394D01*
D02*
G37*
G36*
X291432Y140682D02*
X291708Y140446D01*
X291984Y140237D01*
X292259Y140056D01*
X292533Y139903D01*
X292805Y139778D01*
X293077Y139680D01*
X293348Y139611D01*
X293617Y139569D01*
X293886Y139555D01*
X292165Y137796D01*
X293886Y136036D01*
X293617Y136022D01*
X293348Y135980D01*
X293077Y135910D01*
X292805Y135813D01*
X292533Y135688D01*
X292259Y135535D01*
X291984Y135354D01*
X291708Y135145D01*
X291432Y134908D01*
X291154Y134644D01*
X289762Y136036D01*
X290151Y136439D01*
X290764Y137162D01*
X290988Y137482D01*
X291156Y137775D01*
X291165Y137795D01*
X291155Y137818D01*
X290987Y138110D01*
X290764Y138429D01*
X290485Y138777D01*
X289762Y139555D01*
X291154Y140947D01*
X291432Y140682D01*
D02*
G37*
G36*
X288315Y127941D02*
X286173D01*
X286190Y127960D01*
X286205Y128019D01*
X286217Y128118D01*
X286238Y128433D01*
X286260Y129909D01*
X288228D01*
X288315Y127941D01*
D02*
G37*
G36*
X286185Y122353D02*
X286166Y122540D01*
X286106Y122708D01*
X286007Y122855D01*
X285869Y122983D01*
X285690Y123092D01*
X285472Y123180D01*
X285215Y123249D01*
X284918Y123298D01*
X284581Y123328D01*
X284205Y123338D01*
Y125306D01*
X284581Y125316D01*
X284918Y125346D01*
X285215Y125395D01*
X285472Y125464D01*
X285690Y125552D01*
X285869Y125661D01*
X286007Y125789D01*
X286106Y125936D01*
X286166Y126103D01*
X286185Y126291D01*
Y122353D01*
D02*
G37*
G36*
X242134Y126103D02*
X242193Y125936D01*
X242291Y125788D01*
X242429Y125661D01*
X242606Y125552D01*
X242823Y125464D01*
X243078Y125395D01*
X243374Y125346D01*
X243708Y125316D01*
X244082Y125306D01*
Y123338D01*
X243708Y123328D01*
X243374Y123298D01*
X243078Y123249D01*
X242823Y123180D01*
X242606Y123092D01*
X242429Y122983D01*
X242291Y122855D01*
X242193Y122708D01*
X242134Y122540D01*
X242114Y122353D01*
Y126291D01*
X242134Y126103D01*
D02*
G37*
G36*
X254924Y124074D02*
X254931Y123991D01*
X256890Y123338D01*
X256516Y123321D01*
X256181Y123270D01*
X255886Y123186D01*
X255630Y123068D01*
X255413Y122917D01*
X255236Y122731D01*
X255098Y122512D01*
X255000Y122260D01*
X254941Y121974D01*
X254921Y121653D01*
X252953D01*
X252933Y121974D01*
X252874Y122260D01*
X252776Y122512D01*
X252638Y122731D01*
X252461Y122917D01*
X252244Y123068D01*
X251988Y123186D01*
X251693Y123270D01*
X251358Y123321D01*
X250984Y123338D01*
X252944Y123991D01*
X252950Y124074D01*
X252953Y124322D01*
X254921D01*
X254924Y124074D01*
D02*
G37*
G36*
X293308Y120071D02*
X293302Y120012D01*
X293292Y119776D01*
X293279Y118122D01*
X291310D01*
X291309Y118496D01*
X291223Y120012D01*
X291199Y120071D01*
X291173Y120091D01*
X293315D01*
X293308Y120071D01*
D02*
G37*
G36*
X276751Y116798D02*
X276810Y116666D01*
X276908Y116550D01*
X277046Y116449D01*
X277223Y116364D01*
X277440Y116294D01*
X277696Y116240D01*
X277991Y116201D01*
X278326Y116178D01*
X278700Y116170D01*
Y114202D01*
X278326Y114194D01*
X277696Y114132D01*
X277440Y114077D01*
X277223Y114008D01*
X277046Y113923D01*
X276908Y113822D01*
X276810Y113705D01*
X276751Y113574D01*
X276731Y113426D01*
Y116946D01*
X276751Y116798D01*
D02*
G37*
G36*
X318600Y113055D02*
X318612Y110689D01*
X318597Y110766D01*
X318555Y110836D01*
X318484Y110898D01*
X318386Y110951D01*
X318259Y110996D01*
X318105Y111032D01*
X317922Y111061D01*
X317712Y111082D01*
X317206Y111098D01*
Y113066D01*
X318600Y113055D01*
D02*
G37*
G36*
X324088Y111098D02*
X323714Y111090D01*
X323084Y111028D01*
X322828Y110974D01*
X322611Y110904D01*
X322434Y110819D01*
X322296Y110718D01*
X322198Y110602D01*
X322139Y110470D01*
X322119Y110323D01*
Y113055D01*
X324088Y113066D01*
Y111098D01*
D02*
G37*
G36*
X298315Y108649D02*
X296173D01*
X296199Y108669D01*
X296223Y108728D01*
X296243Y108827D01*
X296261Y108964D01*
X296288Y109358D01*
X296310Y110618D01*
X298279D01*
X298315Y108649D01*
D02*
G37*
G36*
X293315D02*
X291173D01*
X291199Y108669D01*
X291223Y108728D01*
X291243Y108827D01*
X291261Y108964D01*
X291288Y109358D01*
X291310Y110618D01*
X293279D01*
X293315Y108649D01*
D02*
G37*
G36*
X254941Y105159D02*
X255000Y104843D01*
X255098Y104564D01*
X255236Y104322D01*
X255378Y104158D01*
X255464D01*
X255388Y104147D01*
X255413Y104118D01*
X255630Y103950D01*
X255886Y103820D01*
X256181Y103727D01*
X256516Y103671D01*
X256890Y103653D01*
X254932Y103000D01*
X254927Y102911D01*
X254921Y102619D01*
X252953D01*
X252947Y102911D01*
X252939Y103001D01*
X250984Y103653D01*
X251358Y103671D01*
X251693Y103727D01*
X251988Y103820D01*
X252244Y103950D01*
X252461Y104118D01*
X252486Y104147D01*
X252410Y104158D01*
X252496D01*
X252638Y104322D01*
X252776Y104564D01*
X252874Y104842D01*
X252933Y105159D01*
X252953Y105512D01*
X254921D01*
X254941Y105159D01*
D02*
G37*
G36*
X242134Y104450D02*
X242193Y104283D01*
X242291Y104135D01*
X242429Y104007D01*
X242606Y103899D01*
X242823Y103810D01*
X243078Y103741D01*
X243374Y103692D01*
X243708Y103663D01*
X244082Y103653D01*
Y101684D01*
X243708Y101674D01*
X243374Y101645D01*
X243078Y101596D01*
X242823Y101527D01*
X242606Y101438D01*
X242429Y101330D01*
X242291Y101202D01*
X242193Y101054D01*
X242134Y100887D01*
X242114Y100700D01*
Y104637D01*
X242134Y104450D01*
D02*
G37*
G36*
X286173Y100799D02*
X288315D01*
X288298Y100780D01*
X288284Y100721D01*
X288271Y100622D01*
X288250Y100307D01*
X288228Y98831D01*
X286260D01*
X286173Y100799D01*
X286154Y100968D01*
X286095Y101118D01*
X285996Y101251D01*
X285858Y101366D01*
X285681Y101463D01*
X285465Y101543D01*
X285209Y101605D01*
X284913Y101649D01*
X284579Y101675D01*
X284205Y101684D01*
Y103653D01*
X284581Y103663D01*
X284917Y103692D01*
X285214Y103741D01*
X285471Y103810D01*
X285689Y103899D01*
X285867Y104007D01*
X286006Y104135D01*
X286105Y104283D01*
X286165Y104450D01*
X286185Y104637D01*
X286173Y100799D01*
D02*
G37*
G36*
X291220Y95265D02*
X291966Y94628D01*
X292292Y94399D01*
X292586Y94229D01*
X292849Y94118D01*
X293080Y94067D01*
X293279Y94074D01*
X293447Y94141D01*
X293583Y94267D01*
X291166Y91141D01*
X291253Y91316D01*
X291274Y91529D01*
X291230Y91781D01*
X291119Y92071D01*
X290942Y92400D01*
X290699Y92767D01*
X290389Y93173D01*
X289573Y94100D01*
X289066Y94621D01*
X290799Y95671D01*
X291220Y95265D01*
D02*
G37*
G36*
X290758Y85537D02*
X290787Y85200D01*
X290837Y84903D01*
X290905Y84646D01*
X290994Y84428D01*
X291102Y84250D01*
X291230Y84111D01*
X291378Y84012D01*
X291545Y83952D01*
X291732Y83933D01*
X287795D01*
X287982Y83952D01*
X288150Y84012D01*
X288297Y84111D01*
X288425Y84250D01*
X288533Y84428D01*
X288622Y84646D01*
X288691Y84903D01*
X288740Y85200D01*
X288770Y85537D01*
X288779Y85913D01*
X290748D01*
X290758Y85537D01*
D02*
G37*
D11*
X174409Y168504D02*
Y182480D01*
X167323Y161417D02*
X174409Y168504D01*
X144474Y161417D02*
X167323D01*
X174409Y182480D02*
Y192323D01*
Y196063D01*
X188976Y210630D02*
Y217874D01*
X174409Y196063D02*
X188976Y210630D01*
X137008Y153951D02*
X144474Y161417D01*
X292295Y117154D02*
Y124635D01*
X236221Y161417D02*
Y218189D01*
X205906Y121673D02*
Y142898D01*
X205921Y145149D02*
X222190Y161417D01*
X236221D01*
X205528Y142898D02*
X205921Y143291D01*
Y145149D01*
X298031Y92126D02*
X300787Y89370D01*
Y80709D02*
Y89370D01*
X298031Y92126D02*
Y92520D01*
X289764Y89370D02*
X290748Y90354D01*
X289764Y80709D02*
Y89370D01*
X290748Y90354D02*
X292520Y92126D01*
X290748Y90354D02*
Y90354D01*
X292520Y92126D02*
Y92520D01*
X302294Y103248D02*
Y104724D01*
X302393Y103150D02*
X323590D01*
X302244Y97126D02*
Y104724D01*
X298031Y92913D02*
X302244Y97126D01*
X287295Y104724D02*
Y105343D01*
X253937Y102668D02*
X287244Y102668D01*
Y104724D01*
Y97835D02*
Y102668D01*
Y97835D02*
X291772Y93307D01*
X298031Y138189D02*
X300787Y140945D01*
Y147638D01*
X298031Y137795D02*
Y138189D01*
Y137402D02*
X302244Y133189D01*
X298031Y137402D02*
Y137795D01*
X302244Y124016D02*
Y133189D01*
X289764Y140945D02*
Y147638D01*
X292520Y137795D02*
Y138189D01*
X289764Y140945D02*
X292520Y138189D01*
X253937Y124322D02*
X287244Y124322D01*
Y132126D01*
Y124016D02*
Y124322D01*
Y132126D02*
X292520Y137402D01*
Y137795D01*
X90387Y99948D02*
X124016D01*
X90387D02*
X94488Y104049D01*
Y111417D01*
X81979Y99948D02*
X90387D01*
X137008Y145669D02*
Y153951D01*
Y135827D02*
Y145669D01*
Y123445D02*
X138779Y121673D01*
X141142D01*
X137008Y123445D02*
Y135827D01*
X253937Y102619D02*
Y105512D01*
X239764Y102668D02*
X253937D01*
X239764Y124322D02*
X253937D01*
Y121653D02*
Y124322D01*
X253937Y121653D02*
X253937Y121653D01*
X221378Y102362D02*
X228740D01*
X219409Y124016D02*
X228740D01*
X205906Y121673D02*
X207579D01*
X205315D02*
X205906D01*
X207579D02*
X207874Y121968D01*
X131890Y120079D02*
Y124016D01*
X135295Y116673D02*
X141142D01*
X131890Y120079D02*
X135295Y116673D01*
X127733Y128173D02*
X131890Y124016D01*
X140896Y106673D02*
Y111673D01*
X124016Y128173D02*
X127733D01*
X92520D02*
X124016D01*
Y126181D02*
Y128173D01*
Y99948D02*
X137349D01*
X124016D02*
Y102165D01*
X137349Y99948D02*
X140896Y103494D01*
Y106673D01*
X212067Y111673D02*
X221378Y102362D01*
X205315Y111673D02*
X212067D01*
X212067Y116673D02*
X219409Y124016D01*
X205315Y116673D02*
X212067D01*
X81510Y100417D02*
X81979Y99948D01*
X297244Y112205D02*
X317084D01*
X326595Y113855D02*
X327416D01*
X324823Y112082D02*
X326595Y113855D01*
X320359Y111689D02*
X320753Y112082D01*
X324823D01*
X302294Y124635D02*
X323038D01*
X317084Y112205D02*
X317206Y112082D01*
X319966D02*
X320359Y111689D01*
X317206Y112082D02*
X319966D01*
X81510Y128173D02*
X92520D01*
X94488Y116929D02*
Y126204D01*
X92520Y128173D02*
X94488Y126204D01*
X297244Y112205D02*
X297294Y112154D01*
X292295Y117154D02*
X297244Y112205D01*
X320051Y116892D02*
X320359Y117200D01*
X297294Y105343D02*
Y112154D01*
X302294Y103248D02*
X302393Y103150D01*
X275365Y115186D02*
X275365Y115186D01*
X288357D01*
X292295Y111249D01*
Y105343D02*
Y111249D01*
X81510Y105535D02*
Y117149D01*
D18*
X168504Y182480D02*
D03*
X174016D02*
D03*
X168504Y172638D02*
D03*
X174016D02*
D03*
X229528Y177165D02*
D03*
X235039D02*
D03*
X229528Y185039D02*
D03*
X235039D02*
D03*
X168504Y192323D02*
D03*
X174016D02*
D03*
X229528Y192913D02*
D03*
X235039D02*
D03*
X298031Y137795D02*
D03*
X292520D02*
D03*
X205528Y142898D02*
D03*
X211039D02*
D03*
X142520Y145669D02*
D03*
X137008D02*
D03*
X310236Y202756D02*
D03*
X315748D02*
D03*
X310236Y218504D02*
D03*
X315748D02*
D03*
Y234252D02*
D03*
X310236D02*
D03*
X269853Y115186D02*
D03*
X275365D02*
D03*
X137008Y135827D02*
D03*
X142520D02*
D03*
X292520Y92520D02*
D03*
X298031D02*
D03*
X211039Y133055D02*
D03*
X205528D02*
D03*
D19*
X253937Y111024D02*
D03*
Y105512D02*
D03*
X253937Y121653D02*
D03*
Y116142D02*
D03*
X320359Y111689D02*
D03*
Y117200D02*
D03*
X94488Y111417D02*
D03*
Y116929D02*
D03*
D20*
X328708Y103608D02*
D03*
X323590D02*
D03*
X328708Y125296D02*
D03*
X323590D02*
D03*
D21*
X141142Y121673D02*
D03*
Y116673D02*
D03*
Y111673D02*
D03*
Y106673D02*
D03*
X205315D02*
D03*
Y111673D02*
D03*
Y116673D02*
D03*
Y121673D02*
D03*
D22*
X302244Y124016D02*
D03*
X297244D02*
D03*
X292244D02*
D03*
X287244D02*
D03*
D23*
X302244Y104724D02*
D03*
X297244D02*
D03*
X292244D02*
D03*
X287244D02*
D03*
D24*
X289764Y147638D02*
D03*
X300787D02*
D03*
X289764Y80709D02*
D03*
X300787D02*
D03*
X228740Y102362D02*
D03*
X239764D02*
D03*
Y124016D02*
D03*
X228740D02*
D03*
D25*
X124016Y117913D02*
D03*
Y126181D02*
D03*
Y110433D02*
D03*
Y102165D02*
D03*
D26*
X81510Y105535D02*
D03*
Y100417D02*
D03*
D27*
Y117149D02*
D03*
Y128173D02*
D03*
Y195889D02*
D03*
Y206913D02*
D03*
Y172267D02*
D03*
Y183291D02*
D03*
Y148645D02*
D03*
Y159669D02*
D03*
Y219511D02*
D03*
Y230535D02*
D03*
D54*
X80709Y246063D02*
X81510Y245262D01*
Y230535D02*
Y245262D01*
Y80866D02*
Y100417D01*
D55*
X449528Y214327D02*
X451912Y211942D01*
Y208581D02*
Y211942D01*
X449528Y214327D02*
Y214949D01*
X361268Y117937D02*
X451912Y208581D01*
X361268Y117847D02*
Y117937D01*
X358268Y117085D02*
Y122047D01*
X360209Y116788D02*
X361268Y117847D01*
X358565Y116788D02*
X360209D01*
X358268Y117085D02*
X358565Y116788D01*
X328708Y125099D02*
Y125296D01*
Y125099D02*
X329631Y124176D01*
X329828D01*
X357272Y116089D02*
X358268Y117085D01*
X329828Y124176D02*
X337914Y116089D01*
X357272D01*
X456220Y218630D02*
X456535Y218945D01*
X456220Y215008D02*
Y218630D01*
X454412Y207545D02*
Y213199D01*
X456220Y215008D01*
X363768Y116901D02*
X454412Y207545D01*
X363768Y116811D02*
Y116901D01*
X360546Y113589D02*
X363768Y116811D01*
X357175Y113589D02*
X360546D01*
X357175D02*
X358054Y112710D01*
X338492Y113589D02*
X357175D01*
X358054Y108481D02*
Y112710D01*
X328708Y103805D02*
X338492Y113589D01*
X328708Y103608D02*
Y103805D01*
D56*
X81510Y128173D02*
Y148645D01*
Y159669D02*
Y172267D01*
Y183291D02*
Y195889D01*
Y206913D02*
Y219511D01*
D57*
X236221Y228189D02*
D03*
Y238189D02*
D03*
Y258189D02*
D03*
Y268189D02*
D03*
Y218189D02*
D03*
X188976Y227874D02*
D03*
Y237874D02*
D03*
Y257874D02*
D03*
Y267874D02*
D03*
Y217874D02*
D03*
D58*
X447480Y128720D02*
D03*
D59*
Y117815D02*
D03*
Y106909D02*
D03*
Y96000D02*
D03*
Y85094D02*
D03*
X458661Y123268D02*
D03*
Y112362D02*
D03*
Y101457D02*
D03*
Y90551D02*
D03*
D60*
X453071Y57693D02*
D03*
Y156122D02*
D03*
D61*
X41181Y40866D02*
D03*
X51181D02*
D03*
X61181D02*
D03*
X71181D02*
D03*
X81181D02*
D03*
X41181Y50866D02*
D03*
X51181D02*
D03*
X61181D02*
D03*
X71181D02*
D03*
X81181D02*
D03*
X41181Y60866D02*
D03*
X51181D02*
D03*
X61181D02*
D03*
X71181D02*
D03*
X81181D02*
D03*
X41181Y70866D02*
D03*
X51181D02*
D03*
X61181D02*
D03*
X71181D02*
D03*
X81181D02*
D03*
X41181Y80866D02*
D03*
X51181D02*
D03*
X61181D02*
D03*
X71181D02*
D03*
X81181D02*
D03*
D62*
X330394Y241659D02*
D03*
Y201659D02*
D03*
X370394D02*
D03*
X370394Y241659D02*
D03*
X299528D02*
D03*
X299528Y201659D02*
D03*
X259528D02*
D03*
Y241659D02*
D03*
D63*
X350394Y216620D02*
D03*
X279528D02*
D03*
D64*
X456535Y242921D02*
D03*
D65*
X449528Y238925D02*
D03*
X456535Y234929D02*
D03*
X449528Y230933D02*
D03*
X456535Y226937D02*
D03*
X449528Y222941D02*
D03*
X456535Y218945D02*
D03*
X449528Y214949D02*
D03*
X430551Y255945D02*
D03*
Y246925D02*
D03*
Y210941D02*
D03*
Y201925D02*
D03*
D66*
X453031Y260945D02*
D03*
Y196925D02*
D03*
D67*
X466535Y253937D02*
D03*
Y203937D02*
D03*
D68*
X462598Y303150D02*
D03*
Y17717D02*
D03*
X19685D02*
D03*
Y303150D02*
D03*
D69*
X364411Y50864D02*
D03*
D70*
X377915Y64368D02*
D03*
Y37361D02*
D03*
X350907D02*
D03*
D71*
X80709Y286063D02*
D03*
X70709D02*
D03*
X60709D02*
D03*
X50709D02*
D03*
X40709D02*
D03*
Y276063D02*
D03*
X50709D02*
D03*
X60709D02*
D03*
X70709D02*
D03*
X80709D02*
D03*
Y266063D02*
D03*
X70709D02*
D03*
X60709D02*
D03*
X50709D02*
D03*
X40709D02*
D03*
Y256063D02*
D03*
X50709D02*
D03*
X60709D02*
D03*
X70709D02*
D03*
X80709D02*
D03*
Y246063D02*
D03*
X70709D02*
D03*
X60709D02*
D03*
X50709D02*
D03*
X40709D02*
D03*
D72*
X411417Y72835D02*
D03*
X405512Y188976D02*
D03*
X403543Y271654D02*
D03*
X358268Y165354D02*
D03*
X318898Y51181D02*
D03*
X253937Y53150D02*
D03*
X137008Y153951D02*
D03*
X236221Y161417D02*
D03*
X358268Y122047D02*
D03*
X358054Y108481D02*
D03*
X224410Y147638D02*
D03*
X143701Y171260D02*
D03*
X214567Y167323D02*
D03*
X141732Y94488D02*
D03*
X269685Y82677D02*
D03*
X218504Y212598D02*
D03*
X267717Y149606D02*
D03*
X185039Y187008D02*
D03*
X116142Y114173D02*
D03*
X312739Y119025D02*
D03*
X261811Y114173D02*
D03*
X240158D02*
D03*
X210630Y98425D02*
D03*
X147638Y141732D02*
D03*
X327416Y113855D02*
D03*
M02*
