M48
;Layer_Color=9474304
;FILE_FORMAT=2:4
INCH,TZ
;TYPE=PLATED
T01F00S00C0.0280
T02F00S00C0.0370
T03F00S00C0.0394
T04F00S00C0.0413
T05F00S00C0.0461
T06F00S00C0.0531
T07F00S00C0.0571
T08F00S00C0.0630
T09F00S00C0.0638
T10F00S00C0.0728
T11F00S00C0.0886
T12F00S00C0.1252
T13F00S00C0.2165
;TYPE=NON_PLATED
T14F00S00C0.1299
%
T01
X11614Y11417
X14173Y9449
X14764Y14173
X13701Y15395
X21654Y13780
X21063Y9843
X24016Y11417
X26181
X26378Y14567
X26969Y8268
X31274Y11902
X32742Y11386
X35805Y10848
X35827Y12205
X23425Y17520
X21654Y16339
X22244Y19882
X17913Y19685
X14567Y17323
T02
X43055Y20193
Y21094
X44953Y21495
Y22294
Y23093
Y23893
X45654Y24292
Y23493
Y22694
Y21894
X43055Y24693
Y25594
T03
X18898Y20638
Y22638
Y25638
Y26638
X23425Y26638
Y25638
Y22638
Y20638
T04
X36441Y5086
T05
X44748Y8509
Y9600
Y10691
Y11782
Y12872
X45866Y12327
Y11236
Y10146
Y9055
T06
X33039Y20166
X37039
X37039Y24166
X33039
X29953
X25953
Y20166
X29953
T07
X4071Y24606
Y25606
Y26606
Y27606
Y28606
X5071
X6071
X7071
X8071
Y27606
X7071
X6071
X5071
Y26606
X6071
X7071
X8071
Y25606
X7071
X6071
X5071
Y24606
X6071
X7071
X8071
T08
X4118Y4087
X5118
X6118
X7118
X8118
Y5087
X7118
X6118
X5118
X4118
Y6087
X5118
X6118
X7118
X8118
Y7087
X7118
X6118
X5118
X4118
Y8087
X5118
X6118
X7118
X8118
T09
X45303Y19693
Y26094
T10
X35091Y3736
X37792
Y6437
T11
X35039Y21662
X27953
T12
X45307Y5769
Y15612
T13
X1969Y1772
X46260
Y30315
X1969
T14
X46654Y20394
Y25394
M30
